<svg xmlns="http://www.w3.org/2000/svg" width="1002" height="942" viewBox="0 0 1002 942">
  <defs>
    <linearGradient id="graphic-background-bottom-a" x1="0%" y1="50%" y2="50%">
      <stop offset="0%" stop-color="#FF3200" stop-opacity=".2"/>
      <stop offset="100%" stop-color="#FF3200"/>
    </linearGradient>
  </defs>
  <path fill="url(#graphic-background-bottom-a)" d="M650.615155,32.1857712 C709.160116,84.8998906 747.543939,160.489175 761.876863,230.848824 C776.826762,304.287327 845.782005,368.776921 894.333933,431.030025 C929.263943,475.825668 964.708192,521.448275 986.578331,571.929684 C996.515894,594.877121 1003.58688,619.368152 1000.63212,641.819638 C996.271069,674.893642 971.116636,698.125376 944.214022,715.367219 C861.863714,768.137189 751.788268,785.558871 686.887446,857.315902 C658.417155,888.747159 636.865454,931.503123 592.681381,940.245133 C561.46199,946.418355 525.754559,933.459085 494.568541,915.666481 C463.382523,897.873877 434.607188,875.118607 403.034444,858.239458 C392.558348,852.640255 381.445744,847.559763 370.381436,846.404798 C352.313524,844.451408 336.886318,852.712594 321.950509,859.863418 C289.870775,875.144125 255.952504,886.198365 221.046266,892.748928 C197.468274,897.237739 172.694846,899.800978 147.386577,894.919231 C95.5054894,884.866327 47.2139584,843.107093 22.2330125,794.628728 C-5.80663832,740.21787 -6.29012818,677.330178 20.9569101,632.738905 C44.4475368,594.47045 85.1789201,571.119073 118.186657,540.886081 C151.194393,510.65309 177.770033,466.646163 163.69621,417.749729 C158.34536,399.199077 147.542424,381.75651 138.53098,363.937464 C111.179696,310.267728 99.9400431,246.017272 129.721093,204.338465 C155.90289,167.571166 207.93216,156.891516 258.142666,159.9811 C270.974338,160.786384 284.243945,162.422718 296.526541,168.435361 C307.735017,173.89333 317.394305,182.711907 326.351867,191.772105 C347.685016,213.382572 366.654744,237.644771 390.935973,255.819747 C415.217201,273.994723 447.40782,285.267468 470.930977,274.736381 C486.188959,267.899905 495.349783,253.074458 500.646196,237.244283 C511.248478,205.519659 508.624168,169.01901 507.703648,133.664256 C506.783127,98.3095016 508.134412,61.7490793 525.456308,33.9882241 C542.778203,6.22736893 580.763713,-9.74572105 615.88977,6.54785536 C628.796161,12.5398605 640.116846,22.1750077 650.615155,32.1857712 Z" opacity=".1"/>
</svg>
