<svg xmlns="http://www.w3.org/2000/svg" width="149" height="138" viewBox="0 0 149 138">
  <defs>
    <linearGradient id="graphic-plant-mini-a" x1="50%" x2="50%" y1="0%" y2="100%">
      <stop offset="0%" stop-color="#FF6100"/>
      <stop offset="100%" stop-color="#FF3200"/>
    </linearGradient>
  </defs>
  <g fill="none">
    <ellipse cx="74.5" cy="127" fill="url(#graphic-plant-mini-a)" opacity=".1" rx="74.5" ry="11"/>
    <path fill="#FF3200" d="M114.990379,7.76830174 C113.978024,9.1460788 113.166373,10.6571814 112.579131,12.2574752 C112.431072,12.6437529 112.283013,13.0926702 112.134954,13.5207077 C111.866617,13.3970083 111.586833,13.2991167 111.299477,13.2283894 C110.066768,12.9210217 108.791354,12.8152194 107.52397,12.9151913 C107.52397,12.4245142 107.587424,11.8711974 107.598,11.3805204 C107.756635,5.87867293 107.100944,-1.7842417 101.781392,1.46257907 C96.6839285,4.59456053 100.321952,9.81452963 103.61098,13.1553098 C103.896522,13.4476281 104.182065,13.7190665 104.457032,13.980065 C101.453547,16.0680526 100.882462,21.0061434 100.385406,26.132153 C99.8883506,31.2581627 95.4783043,36.8644095 92.5488491,40.0485906 C92.2527309,40.3722287 91.9883396,40.664547 91.7239484,40.9359854 C89.3287273,39.0490361 86.2307368,38.2626327 83.2105497,38.7749182 C83.0942176,38.3260008 82.9567341,37.8562036 82.8192507,37.3655265 C80.4503049,28.9196165 75.5326275,14.2932631 69.2612667,11.0882021 L70.0861675,10.0442083 C72.7512314,6.6094686 75.7547161,1.49389889 71.3235186,0.188906616 C66.892321,-1.11608566 66.4904463,4.61544041 66.7336862,8.91669494 C66.7759888,9.45957173 66.8182914,9.9711287 66.8605941,10.4513659 C65.0700779,10.5319347 63.3932521,11.3406924 62.2284591,12.6855126 L61.5410418,11.8816374 C57.9453207,7.70566211 51.3566904,1.05542149 49.3578925,6.07703175 C47.496578,10.7541241 53.3026101,16.8301681 57.3848112,20.3484273 L57.6386268,20.567666 C54.8995333,31.540041 66.8605941,40.487068 73.3011652,44.4020448 L74.1366416,44.9031619 C65.2530952,55.2387007 59.7643326,74.615226 59.7643326,74.615226 L84.6382625,79 C84.6382625,79 101.136277,64.9478432 99.0211472,51.7517613 L99.1903576,51.7517613 C115.677797,48.4945006 119.421577,31.1433233 116.851694,20.8391044 L117.147812,20.724265 C120.151708,19.5117573 122.783468,17.5470739 124.783432,15.0240588 C129.394415,8.70789618 119.749422,1.56697846 114.990379,7.76830174 Z"/>
    <path fill="#000" d="M114.990379,7.76830174 C113.978024,9.1460788 113.166373,10.6571814 112.579131,12.2574752 C112.431072,12.6437529 112.283013,13.0926702 112.134954,13.5207077 C111.866617,13.3970083 111.586833,13.2991167 111.299477,13.2283894 C110.066768,12.9210217 108.791354,12.8152194 107.52397,12.9151913 C107.52397,12.4245142 107.587424,11.8711974 107.598,11.3805204 C107.756635,5.87867293 107.100944,-1.7842417 101.781392,1.46257907 C96.6839285,4.59456053 100.321952,9.81452963 103.61098,13.1553098 C103.896522,13.4476281 104.182065,13.7190665 104.457032,13.980065 C101.453547,16.0680526 100.882462,21.0061434 100.385406,26.132153 C99.8883506,31.2581627 95.4783043,36.8644095 92.5488491,40.0485906 C92.2527309,40.3722287 91.9883396,40.664547 91.7239484,40.9359854 C89.3287273,39.0490361 86.2307368,38.2626327 83.2105497,38.7749182 C83.0942176,38.3260008 82.9567341,37.8562036 82.8192507,37.3655265 C80.4503049,28.9196165 75.5326275,14.2932631 69.2612667,11.0882021 L70.0861675,10.0442083 C72.7512314,6.6094686 75.7547161,1.49389889 71.3235186,0.188906616 C66.892321,-1.11608566 66.4904463,4.61544041 66.7336862,8.91669494 C66.7759888,9.45957173 66.8182914,9.9711287 66.8605941,10.4513659 C65.0700779,10.5319347 63.3932521,11.3406924 62.2284591,12.6855126 L61.5410418,11.8816374 C57.9453207,7.70566211 51.3566904,1.05542149 49.3578925,6.07703175 C47.496578,10.7541241 53.3026101,16.8301681 57.3848112,20.3484273 L57.6386268,20.567666 C54.8995333,31.540041 66.8605941,40.487068 73.3011652,44.4020448 L74.1366416,44.9031619 C65.2530952,55.2387007 59.7643326,74.615226 59.7643326,74.615226 L84.6382625,79 C84.6382625,79 101.136277,64.9478432 99.0211472,51.7517613 L99.1903576,51.7517613 C115.677797,48.4945006 119.421577,31.1433233 116.851694,20.8391044 L117.147812,20.724265 C120.151708,19.5117573 122.783468,17.5470739 124.783432,15.0240588 C129.394415,8.70789618 119.749422,1.56697846 114.990379,7.76830174 Z" opacity=".1"/>
    <path fill="#FF3200" d="M67 17.1973272L63.8879107 26C63.8879107 26 62.1564574 24.8116392 59.9723365 22.9410712 55.6040948 19.2329453 49.3912329 12.8290009 51.3829701 7.89950415 53.5218242 2.60689716 60.572121 9.59401866 64.4197951 14.0173617 65.9701814 15.7778963 67 17.1973272 67 17.1973272zM71.9721018 12.5373009C71.2008467 13.7439476 70.3748398 14.8998895 69.4977447 16 69.2810088 14.4613307 69.1300154 12.91063 69.0453435 11.3538468 68.832992 6.83918841 69.2392297.84521241 73.0523249 2.19303517 76.8654201 3.54085793 74.2987362 8.93214895 71.9721018 12.5373009zM107.990448 12.9173005C107.90948 15.7410224 107.646334 18 107.646334 18 106.422085 16.9911545 105.262398 15.8983624 104.174829 14.7287448 101.027196 11.2870007 97.5455704 5.98053452 102.423895 2.79452373 107.464156-.530009278 108.091658 7.30182328 107.990448 12.9173005zM124.853665 15.4781956C122.966429 17.9641917 120.483008 19.9000481 117.648427 21.0947653 116.861574 21.4457024 116.055126 21.7479833 115.233375 22L112 17.3195252C112.339494 15.7728744 112.786399 14.253377 113.33726 12.7727783 113.891402 11.195965 114.657305 9.7070341 115.612598 8.34947254 120.083439 2.23913847 129.204751 9.27528073 124.853665 15.4781956z"/>
    <path fill="#000" d="M62.7971014 14C64.1207729 15.7712177 65 17.1439114 65 17.1439114L62.3429952 26C62.3429952 26 60.8647343 24.804428 59 22.9225092 59.4143047 20.0686968 60.4438153 17.3785197 61.9951691 15.095941 62.2560386 14.7306273 62.5362319 14.3542435 62.7971014 14zM73 11.0188679C71.9459257 12.057703 70.8170223 13.0528849 69.6182965 14 69.3220837 12.6753177 69.115721 11.3402772 69 10 70.4421386 10.0223601 71.8395693 10.3783094 73 11.0188679z" opacity=".1"/>
    <path fill="#FF3200" d="M87,44.8784316 L79.545555,48 C79.545555,48 77.9217066,47.2508236 75.5785696,45.856523 C67.7426837,41.2574122 51.9946236,29.6763935 62.5005959,16.0247343 C73.0065681,2.37307514 81.8668953,26.8565767 85.3870499,38.8329941 C86.4441861,42.4748239 87,44.8784316 87,44.8784316 Z"/>
    <path fill="#000" d="M104 14.1383648C105.055612 12.848749 106.485876 12.0841429 108 12 107.915119 15.3333333 107.639257 18 107.639257 18 106.35585 16.809083 105.140123 15.5190692 104 14.1383648zM118 23.0189521C117.16417 23.39928 116.307528 23.7268769 115.434629 24L112 18.9275362C112.360625 17.2513536 112.835346 15.6045986 113.420495 14 115.614841 15.3600892 117.24735 18.7491639 118 23.0189521z" opacity=".1"/>
    <path fill="#FF3200" d="M101.008761,53.130744 C100.604953,53.2148059 100.179318,53.28836 99.753682,53.3514065 C74.7284949,57.0080982 91.5029008,44.0100302 91.5029008,44.0100302 C91.5029008,44.0100302 92.594274,42.9592567 94.1549376,41.3725887 C97.1780413,38.1677296 101.718154,32.5565992 102.242013,27.3657782 C103.027802,19.5585312 103.933641,12.2346401 113.504984,14.378218 C122.901707,16.5007804 124.702473,48.5598794 101.008761,53.130744 Z"/>
    <polygon fill="#D4DFEC" points="55 113 101 113 101 125 55 125"/>
    <polygon fill="#D4DFEC" points="47 73 109 73 109 115 47 115"/>
    <polygon fill="#000" points="55 113 101 113 101 125 55 125" opacity=".1"/>
    <polygon fill="#000" points="47 73 109 73 109 115 47 115" opacity=".1"/>
    <polygon fill="#D4DFEC" points="57 113 103 113 103 125 57 125"/>
    <path fill="#000" d="M84.3053435 40C85.4503817 43.9090909 86 46.5909091 86 46.5909091L78.1679389 50C78.1679389 50 76.4618321 49.1818182 74 47.6590909 77.0687023 43.8068182 80.5267176 40.8977273 84.3053435 40zM100 53.1739343C99.6233325 53.2538194 99.2263045 53.3237189 98.8292766 53.3836328 75.4860696 56.8586364 91.1330426 44.5063963 91.1330426 44.5063963 91.1330426 44.5063963 92.151063 43.5078321 93.6068321 42 97.9639593 45.4250755 99.7658553 49.2795336 100 53.1739343z" opacity=".1"/>
    <path fill="#FF3200" d="M61,77.4547789 C61,77.4547789 74.7642407,27.5549766 94.070625,42.9479809 C113.377009,58.3409851 86.2130016,82 86.2130016,82 L61,77.4547789 Z"/>
    <circle cx="69" cy="24" r="2" fill="#000" opacity=".1"/>
    <circle cx="69" cy="32" r="2" fill="#000" opacity=".1"/>
    <circle cx="112" cy="26" r="2" fill="#000" opacity=".1"/>
    <circle cx="76" cy="62" r="2" fill="#000" opacity=".1"/>
    <circle cx="110" cy="38" r="2" fill="#000" opacity=".1"/>
    <circle cx="94" cy="54" r="2" fill="#000" opacity=".1"/>
    <circle cx="75" cy="26" r="2" fill="#000" opacity=".1"/>
    <circle cx="108" cy="30" r="2" fill="#000" opacity=".1"/>
    <circle cx="102" cy="42" r="2" fill="#000" opacity=".1"/>
    <circle cx="86" cy="60" r="2" fill="#000" opacity=".1"/>
    <circle cx="84" cy="54" r="2" fill="#000" opacity=".1"/>
    <circle cx="76" cy="36" r="2" fill="#000" opacity=".1"/>
    <polygon fill="#000" points="57 113 103 113 103 117 57 117" opacity=".1"/>
    <polygon fill="#D4DFEC" points="49 73 111 73 111 115 49 115"/>
    <circle cx="88" cy="68" r="2" fill="#000" opacity=".1"/>
    <circle cx="80" cy="70" r="2" fill="#000" opacity=".1"/>
  </g>
</svg>
