<svg xmlns="http://www.w3.org/2000/svg" xmlns:xlink="http://www.w3.org/1999/xlink" width="796" height="443" viewBox="0 0 796 443">
  <defs>
    <path id="graphic-plants-large-a" d="M86.5255344,121.704125 C89.3468886,132.023392 78.6641759,167 78.6641759,167 C78.6641759,167 51.5861635,142.126593 48.7910138,131.807327 C46.7959619,125.075496 48.637692,117.802502 53.6050456,112.796711 C58.5723991,107.79092 65.8880378,105.835686 72.7271286,107.685995 C79.5662194,109.536304 84.8585171,114.902602 86.5604737,121.712768 L86.5255344,121.704125 Z"/>
    <path id="graphic-plants-large-b" d="M133.155751,172.073125 C129.838608,182.299803 101.502486,206 101.502486,206 C101.502486,206 92.4110581,170.406298 95.7282008,160.188301 C99.1818965,150.144875 110.135142,144.6931 120.345717,147.935387 C130.556292,151.177675 136.255951,161.917449 133.155751,172.073125 Z"/>
    <path id="graphic-plants-large-c" d="M63.243634,218.360641 C72.576206,223.536929 109,221.673466 109,221.673466 C109,221.673466 91.3190495,189.753022 81.9864775,184.576734 C75.9374608,181.097076 68.4814319,181.144655 62.4773799,184.701229 C56.4733279,188.257802 52.8529929,194.771441 53.0045804,201.744514 C53.1561678,208.717586 57.0561534,215.067973 63.2091009,218.360641 L63.243634,218.360641 Z"/>
  </defs>
  <g fill="none" fill-rule="evenodd" transform="matrix(-1 0 0 1 796 .536)">
    <path fill="#FFCDD3" fill-rule="nonzero" d="M359.504215,134 L371.709749,179.61028 L383.182951,233.043936 C383.182951,233.043936 389.364182,244.431294 383.182951,268.083966 L403.487728,333.782936 C403.487728,333.782936 414.96093,375.829234 422.022703,376.70719 C429.084477,377.585147 414.96093,410 414.96093,410 L395.536695,398.612642 C395.536695,398.612642 390.236006,372.334793 383.174232,366.197789 C376.112459,360.060785 353.157337,298.742906 353.157337,298.742906 L346.095564,255.818651 C346.095564,255.818651 324.029702,197.125949 304.605467,183.104721 C285.181231,169.083493 279,146.308778 279,146.308778 L359.504215,134 Z"/>
    <path fill="#000" fill-rule="nonzero" d="M279,146.300472 C279,146.300472 285.179745,169.075906 304.59931,183.097575 C324.018875,197.119244 346.079431,255.813795 346.079431,255.813795 L353.139506,298.739402 C353.139506,298.739402 376.089109,360.059213 383.149184,366.196409 C388.326573,370.699339 392.562618,386.059717 394.480169,393.909417 C395.168745,396.760693 395.543539,398.612283 395.543539,398.612283 L414.963104,410 C414.963104,410 429.083254,377.584126 422.023179,376.706142 C420.924945,376.575748 419.730834,375.445669 418.475709,373.637543 C411.677118,363.805858 403.49266,333.780535 403.49266,333.780535 L383.192765,268.079496 C389.37251,244.426079 383.192765,233.038362 383.192765,233.038362 L371.722322,179.603024 L359.519723,134 L279,146.300472 Z" opacity=".05"/>
    <path fill="#000" fill-rule="nonzero" d="M394,394.627301 C394.699776,397.528568 395.080666,399.412623 395.080666,399.412623 L414.81611,411 C414.81611,411 429.165938,378.015778 421.991024,377.1224 C420.874926,376.98972 419.661391,375.839828 418.385851,374 C416.472046,375.138626 415.538049,377.400077 416.09165,379.554865 C416.373392,380.885626 416.850998,382.167368 417.508917,383.358355 C420.166293,387.781018 408.535845,394.945733 408.535845,394.945733 C404.602929,399.978723 398.225227,397.333971 394,394.627301 Z" opacity=".1"/>
    <path fill="#DCE6F2" fill-rule="nonzero" d="M416.90251,381.222468 C415.697918,376.211944 422.024189,372.848597 425.568633,376.608646 C426.472493,377.54922 427.263521,378.591075 427.925819,379.713274 C431.435599,385.79317 457.763282,391.01067 463.023618,389.277252 C468.283955,387.543835 486.7168,385.827666 482.331741,398.841231 C477.946683,411.854795 398.980966,431 398.980966,431 C398.980966,431 390.193517,418.82296 391.06013,410.138626 C391.570766,404.35446 391.570766,398.536877 391.06013,392.752711 C391.06013,392.752711 403.348693,404.050106 409.484308,396.202297 C409.484308,396.202297 420.888926,389.25138 418.263091,384.904902 C417.63083,383.750337 417.17241,382.509618 416.90251,381.222468 Z"/>
    <path fill="#000" fill-rule="nonzero" d="M167,375.034861 L174.090909,392 L206,388.456368 C205.018254,383.847678 204.473025,379.154748 204.371717,374.441302 C203.728161,373.144785 202.497969,372.249406 201.078621,372.044465 C199.659274,371.839524 198.230726,372.351006 197.254545,373.413649 C195.608754,375.185465 193.9367,377.081308 192.711111,378.640506 C189.165657,383.070047 177.645118,380.412323 177.645118,380.412323 C174.659933,381.413399 171.114478,377.072449 168.575758,373.068145 C168.114877,373.773956 167.58713,374.43264 167,375.034861 Z" opacity=".1"/>
    <path fill="#DCE6F2" fill-rule="nonzero" d="M195.054581,375.22361 C196.130469,374.078943 197.746775,373.601596 199.278721,373.976086 C200.810667,374.350576 202.018213,375.518225 202.434586,377.02768 C204.035907,383.216762 207.551853,391.201282 215.219052,394.231084 C228.438659,399.410232 246.940888,408.145729 240.77928,415.974874 C234.617673,423.80402 213.452376,430.778606 194.941444,424.675843 C176.430512,418.57308 150,403.795244 150,403.795244 L163.219608,369 C163.219608,369 170.268905,383.786468 175.560229,382.051453 C175.560229,382.051453 187.013161,384.641028 190.537809,380.325071 C191.764909,378.797222 193.418448,376.967256 195.054581,375.22361 Z"/>
    <path stroke="#535461" stroke-width="2" d="M148,439 C148,439 100.485289,361.13482 113.167397,290.884243 C118.497684,261.363546 114.713785,230.974593 101.383749,204.136806 C95.0363382,191.429386 87.5437677,179.333218 79,168"/>
    <path fill="#6C63FF" fill-rule="nonzero" d="M86.5255344 121.704125C89.3468886 132.023392 78.6641759 167 78.6641759 167 78.6641759 167 51.5861635 142.126593 48.7910138 131.807327 46.7959619 125.075496 48.637692 117.802502 53.6050456 112.796711 58.5723991 107.79092 65.8880378 105.835686 72.7271286 107.685995 79.5662194 109.536304 84.8585171 114.902602 86.5604737 121.712768L86.5255344 121.704125zM133.155751 172.073125C129.838608 182.299803 101.502486 206 101.502486 206 101.502486 206 92.4110581 170.406298 95.7282008 160.188301 99.1818965 150.144875 110.135142 144.6931 120.345717 147.935387 130.556292 151.177675 136.255951 161.917449 133.155751 172.073125zM159.066292 270.423193C150.905448 277.644341 114 284 114 284 114 284 124.411501 248.488737 132.607789 241.267589 137.860993 236.42983 145.354243 234.771324 152.19861 236.931486 159.042977 239.091649 164.169381 244.733065 165.601401 251.68076 167.033422 258.628454 164.547379 265.797205 159.101736 270.423193L159.066292 270.423193zM160.894595 349.877992C154.122326 358.441685 119 371 119 371 119 371 123.162124 333.881827 129.934392 325.291621 136.759064 316.897928 149.046129 315.556679 157.51377 322.281072 165.981411 329.005464 167.487624 341.300345 160.894595 349.877992zM63.243634 218.360641C72.576206 223.536929 109 221.673466 109 221.673466 109 221.673466 91.3190495 189.753022 81.9864775 184.576734 75.9374608 181.097076 68.4814319 181.144655 62.4773799 184.701229 56.4733279 188.257802 52.8529929 194.771441 53.0045804 201.744514 53.1561678 208.717586 57.0561534 215.067973 63.2091009 218.360641L63.243634 218.360641zM67.0119205 311.749182C77.5375319 313.940039 112 301.057801 112 301.057801 112 301.057801 85.4208758 275.494883 74.8691894 273.304027 64.4830411 271.448821 54.5205171 278.270149 52.400751 288.688137 50.2809849 299.106126 56.775005 309.331412 67.0466872 311.749182L67.0119205 311.749182zM82.9581142 400.768233C92.950626 404.722074 129 397.892712 129 397.892712 129 397.892712 107.106684 368.155622 97.1141725 364.201782 87.1939544 360.531259 76.1897893 365.544076 72.3405116 375.487128 68.491234 385.430179 73.2074467 396.659745 82.9581142 400.768233z"/>
    <g fill-rule="nonzero">
      <use fill="#F30" xlink:href="#graphic-plants-large-a"/>
      <use fill="#FFF" fill-opacity=".4" xlink:href="#graphic-plants-large-a"/>
    </g>
    <g fill-rule="nonzero">
      <use fill="#F30" xlink:href="#graphic-plants-large-b"/>
      <use fill="#FFF" fill-opacity=".4" xlink:href="#graphic-plants-large-b"/>
    </g>
    <path fill="#FC6681" fill-rule="nonzero" d="M159.066292 270.423193C150.905448 277.644341 114 284 114 284 114 284 124.411501 248.488737 132.607789 241.267589 137.860993 236.42983 145.354243 234.771324 152.19861 236.931486 159.042977 239.091649 164.169381 244.733065 165.601401 251.68076 167.033422 258.628454 164.547379 265.797205 159.101736 270.423193L159.066292 270.423193zM160.894595 349.877992C154.122326 358.441685 119 371 119 371 119 371 123.162124 333.881827 129.934392 325.291621 136.759064 316.897928 149.046129 315.556679 157.51377 322.281072 165.981411 329.005464 167.487624 341.300345 160.894595 349.877992z"/>
    <g fill-rule="nonzero">
      <use fill="#F30" xlink:href="#graphic-plants-large-c"/>
      <use fill="#FFF" fill-opacity=".4" xlink:href="#graphic-plants-large-c"/>
    </g>
    <path fill="#FC6681" fill-rule="nonzero" d="M67.0119205 311.749182C77.5375319 313.940039 112 301.057801 112 301.057801 112 301.057801 85.4208758 275.494883 74.8691894 273.304027 64.4830411 271.448821 54.5205171 278.270149 52.400751 288.688137 50.2809849 299.106126 56.775005 309.331412 67.0466872 311.749182L67.0119205 311.749182zM82.9581142 400.768233C92.950626 404.722074 129 397.892712 129 397.892712 129 397.892712 107.106684 368.155622 97.1141725 364.201782 87.1939544 360.531259 76.1897893 365.544076 72.3405116 375.487128 68.491234 385.430179 73.2074467 396.659745 82.9581142 400.768233z"/>
    <path fill="#FF3200" fill-rule="nonzero" d="M184.26036,439 C184.26036,439 213.121945,391.946058 141.40528,322.236515 C69.688614,252.526971 74.0615815,239.456432 80.1837358,229 C80.1837358,229 22.4605659,235.970954 34.7048747,322.236515 C46.9491834,408.502075 99.4247925,439 99.4247925,439 L184.26036,439 Z"/>
    <path stroke="#535461" stroke-width="2" d="M144,439 C144,439 122.569068,377.13278 90.2039877,339.6639 C57.8389072,302.195021 63.9620305,240.327801 80.5819368,229"/>
    <path fill="#FC6681" fill-rule="nonzero" d="M453.275242,250.199268 C465.421919,264.003484 464.998198,284 464.998198,284 C464.998198,284 444.871436,281.604947 432.724758,267.800732 C420.578081,253.996516 421.001802,234 421.001802,234 C421.001802,234 441.128564,236.395053 453.275242,250.199268 Z"/>
    <g stroke-width="2" transform="translate(506 62)">
      <path stroke="#FC6681" d="M27.2503846,47.8274069 C27.2503846,47.8274069 75.4753077,142.71884 36.1773846,194.638594 C3.70309488,237.543079 27.3394003,341.581338 36.5268574,376.417852"/>
      <path stroke="#FFD037" d="M48.1367052,59.3283427 C48.1367052,59.3283427 -0.0882179185,154.219775 39.2097052,206.13953 C68.9053078,245.37286 51.6817925,335.72564 41.4917859,377.53802"/>
      <path stroke="#FC6681" d="M71.9688585,14.8929091 C71.9688585,14.8929091 120.193782,109.784342 80.9045509,161.704096 C41.6153201,213.623851 84.4770893,355.067935 84.4770893,355.067935"/>
      <path stroke="#FFD037" d="M90.0571742,1.70307485 C90.0571742,1.70307485 41.8322511,96.5945076 81.1301742,148.514262 C120.428097,200.434017 77.5576358,341.878101 77.5576358,341.878101" transform="rotate(5 81.714 171.79)"/>
      <path stroke="#FC6681" d="M52.0669231 138.710938C52.0669231 138.710938 33.1994752 97.1259103 6.72290979 96.2332226M69.7731538 186.335267C69.7731538 186.335267 40.7408462 140.47093 0 139.48638"/>
    </g>
    <path fill="#FF3200" fill-rule="nonzero" d="M284.742982,252.265787 C284.742982,252.265787 255.963874,220.010979 245.498744,260.111551 C235.033614,300.212123 228.928955,305.442632 207.998694,294.981613 C187.068434,284.520594 165.266079,334.210434 216.719636,369.952248 C268.173193,405.694062 239.394085,441 239.394085,441 L423.405958,441 C423.405958,441 447.824595,369.952248 394.62685,345.543204 C341.429104,321.13416 343.173293,302.827377 344.917481,278.418334 C346.661669,254.00929 284.742982,252.265787 284.742982,252.265787 Z"/>
    <path stroke="#535461" stroke-width="2" d="M260 240C260 240 378.034072 397.412369 337.540631 441M228 297.689153C228 297.689153 256.385675 321.754767 302.790387 309.543147 349.195099 297.331527 337.751522 266 337.751522 266"/>
    <path stroke="#535461" stroke-width="2" d="M423,372 C423,372 361.451348,342.497233 330.498127,353.50148 C249.934232,382.15047 190,305 190,305"/>
    <g transform="translate(99 164)">
      <path fill="#FF3200" fill-rule="nonzero" d="M144.767396,276 C144.767396,276 182.484952,248.138801 135.118718,150.624606 C135.118718,150.624606 71.9637402,73.1356467 135.118718,0 C135.118718,0 -2.59422019,3.48264984 0.0372372345,130.599369 C2.66869466,257.716088 68.8937065,276 68.8937065,276 L144.767396,276 Z"/>
      <path fill="#000" fill-rule="nonzero" d="M144.767396,276 C144.767396,276 182.484952,248.138801 135.118718,150.624606 C135.118718,150.624606 71.9637402,73.1356467 135.118718,0 C135.118718,0 -2.59422019,3.48264984 0.0372372345,130.599369 C2.66869466,257.716088 68.8937065,276 68.8937065,276 L144.767396,276 Z" opacity=".1"/>
      <path stroke="#535461" stroke-width="2" d="M109.713528,276 C109.713528,276 100.32859,208.958991 75.1981007,168.037855 C70.2403268,159.76898 66.6741811,150.735013 64.6432951,141.299811 C56.2462453,104.18347 68.2222234,65.3693375 95.3544864,38.8054259 L135,0"/>
    </g>
    <path fill="#FF3200" fill-rule="nonzero" d="M704.976752,33 C704.976752,33 684.996837,195.748124 704.976752,295.833869 C724.956667,395.919614 604,439 604,439 L781.421643,439 C781.421643,439 805.745018,114.809218 704.976752,33 Z"/>
    <path stroke="#535461" stroke-width="2" d="M706,33 C706,33 756.731655,173.42 749.246227,244.846154 C741.7608,316.272308 731.300395,441 731.300395,441"/>
    <path fill="#FF3200" fill-rule="nonzero" d="M579.241324,439.382274 C579.241324,439.382274 450.092544,410.716509 614.42063,243 C614.42063,243 685.253215,309.645726 659.27249,392.488916 C648.827536,425.79871 615.210584,446.361386 581.154769,439.774359 L579.241324,439.382274 Z"/>
    <path fill="#FFF" fill-rule="nonzero" d="M578.622335,439.382274 C575.799872,438.754938 452.791159,407.884785 613.645345,243 C613.645345,243 684.163233,309.645726 658.297936,392.488916 C647.899387,425.79871 614.43179,446.361386 580.527279,439.774359 L578.622335,439.382274 Z" opacity=".4"/>
    <path stroke="#535461" d="M581,440 C581,440 648.679423,338.151139 614.221436,243"/>
    <path fill="#FF3200" fill-rule="nonzero" d="M48.241324,439.382274 C48.241324,439.382274 -80.9074556,410.716509 83.42063,243 C83.42063,243 154.253215,309.645726 128.27249,392.488916 C117.827536,425.79871 84.2105844,446.361386 50.1547693,439.774359 L48.241324,439.382274 Z"/>
    <path fill="#FFF" fill-rule="nonzero" d="M47.6223348,439.382274 C44.7998716,438.754938 -78.2088406,407.884785 82.6453453,243 C82.6453453,243 153.163233,309.645726 127.297936,392.488916 C116.899387,425.79871 83.4317901,446.361386 49.527279,439.774359 L47.6223348,439.382274 Z" opacity=".4"/>
    <path stroke="#535461" d="M50,440 C50,440 117.679423,338.151139 83.2214356,243"/>
    <path fill="#FF3200" fill-rule="nonzero" d="M679.035083,0 C679.035083,0 613.449171,65.4184372 650.472772,162.487866 C687.496373,259.557296 587,421 587,421 C587,421 588.074034,420.843226 590.073657,420.494838 C724.773201,396.778369 791.71257,243.104702 716.800902,128.946873 C688.963346,86.5045824 666.103019,36.7113185 679.035083,0 Z"/>
    <path fill="#000" fill-rule="nonzero" d="M679.035083,0 C679.035083,0 613.449171,65.4184372 650.472772,162.487866 C687.496373,259.557296 587,421 587,421 C587,421 588.074034,420.843226 590.073657,420.494838 C724.773201,396.778369 791.71257,243.104702 716.800902,128.946873 C688.963346,86.5045824 666.103019,36.7113185 679.035083,0 Z" opacity=".1"/>
    <path stroke="#535461" d="M678.845687,0 C678.845687,0 641.898276,80.1900614 678.845687,145.608499 C715.793099,211.026936 685.180774,394.618367 587,421"/>
    <path fill="#FF3200" fill-rule="nonzero" d="M796,265.816929 C796,265.816929 721.348392,253.936177 714.546046,320.79043 C707.7437,387.644683 571,396.91428 571,396.91428 C571,396.91428 571.870979,397.52355 573.560678,398.65505 C686.465683,472.724792 794.397399,445.838607 778.127511,347.48513 C772.082917,310.885452 772.579375,274.163919 796,265.816929 Z"/>
    <path fill="#F5F5F5" fill-rule="nonzero" d="M796,265.816929 C796,265.816929 721.348392,253.936177 714.546046,320.79043 C707.7437,387.644683 571,396.91428 571,396.91428 C571,396.91428 571.870979,397.52355 573.560678,398.65505 C686.465683,472.724792 794.397399,445.838607 778.127511,347.48513 C772.082917,310.885452 772.579375,274.163919 796,265.816929 Z" opacity=".2"/>
    <path stroke="#535461" d="M796,266 C796,266 738.056011,278.763381 742.811373,331.643992 C747.566734,384.524604 656.77069,447.91315 571,397.672635"/>
    <path fill="#FF3200" fill-rule="nonzero" d="M743.709963 381.85993C748.182487 377.727823 752.381343 372.85784 753.671495 366.923762 754.961646 360.989685 752.41262 353.875005 746.712497 351.707979 740.316474 349.276871 733.482582 353.680827 728.306339 358.123618 723.130095 362.566409 717.18758 367.646104 710.408422 366.667448 717.501961 360.281513 720.701747 350.666361 718.83741 341.338877 718.5388 339.44551 717.728021 337.668284 716.491681 336.197045 712.94181 332.429993 706.506692 334.045554 702.260921 337.012592 688.7417 346.457408 684.972894 364.6946 684.902522 381.106519 683.541999 375.187976 684.691406 369.013117 684.652311 362.939231 684.613215 356.865345 682.955567 350.146788 677.779323 346.9079 674.714237 344.973888 670.937612 344.577765 667.30955 344.461258 661.234111 344.236012 654.47059 344.841847 650.318649 349.261337 645.165863 354.744922 646.502929 363.948956 650.983272 369.984007 655.463616 376.019057 662.289689 379.801643 668.568425 383.964818 673.353713 387.14157 678.193736 390.854252 681.133717 395.87181 681.513559 396.549093 681.825225 397.26194 682.064189 398L720.151019 398C728.701524 393.701171 736.626531 388.271803 743.709963 381.85993zM251.070233 147.604346C244.325754 153.60039 237.589978 162.955611 240.844733 176.009408 247.27592 201.69928 279.684228 203.161306 288.908934 228.381241 291.667644 235.935038 291.397864 243.715101 289.979348 250.198487 287.203234 262.878075 280.545781 271.954815 275.541813 282.598011 270.537845 293.241206 267.143849 307.043421 271.355885 322.072692 275.411274 336.536299 285.706395 348.719843 296.097243 356.056077 306.488092 363.39231 317.25315 366.899431 327.88767 371.57269 340.903769 377.378575 353.28143 384.521086 364.821306 392.885189 369.929704 396.548954 375.064211 400.569524 379.502513 406.052119 384.558696 412.300536 388.396522 420.071896 392.13862 427.686611 393.992264 431.46351 393.496218 438.999902 397.708254 438.999902 505.280514 438.634395 429.907701 438.58218 482.714793 438.834554 492.104848 438.878066 505.54159 438.938984 524.782935 438.999902 545.260043 439.069522 541.57016 402.118574 538.872369 378.082183 535.043245 344.037881 506.429251 315.98092 492.174469 282.824276 481.957671 259.066366 479.555766 233.428709 471.009859 209.070324 458.695747 173.973016 434.23287 144.262574 408.647363 126.552923 383.061857 108.843272 356.432044 101.898652 331.090209 99.5750765 320.368664 98.5829879 309.568795 98.4089373 300.570355 102.951659 290.997547 107.781563 288.787099 119.939 281.424739 127.431879 272.931047 136.177923 260.234022 139.458777 251.070233 147.604346z"/>
    <path fill="#FFF" fill-rule="nonzero" d="M251.070233,147.604346 C244.325754,153.60039 237.589978,162.955611 240.844733,176.009408 C247.27592,201.69928 279.684228,203.161306 288.908934,228.381241 C291.667644,235.935038 291.397864,243.715101 289.979348,250.198487 C287.203234,262.878075 280.545781,271.954815 275.541813,282.598011 C270.537845,293.241206 267.143849,307.043421 271.355885,322.072692 C275.411274,336.536299 285.706395,348.719843 296.097243,356.056077 C306.488092,363.39231 317.25315,366.899431 327.88767,371.57269 C340.903769,377.378575 353.28143,384.521086 364.821306,392.885189 C369.929704,396.548954 375.064211,400.569524 379.502513,406.052119 C384.558696,412.300536 388.396522,420.071896 392.13862,427.686611 C393.992264,431.46351 393.496218,438.999902 397.708254,438.999902 C505.280514,438.634395 429.907701,438.58218 482.714793,438.834554 C492.104848,438.878066 505.54159,438.938984 524.782935,438.999902 C545.260043,439.069522 541.57016,402.118574 538.872369,378.082183 C535.043245,344.037881 506.429251,315.98092 492.174469,282.824276 C481.957671,259.066366 479.555766,233.428709 471.009859,209.070324 C458.695747,173.973016 434.23287,144.262574 408.647363,126.552923 C383.061857,108.843272 356.432044,101.898652 331.090209,99.5750765 C320.368664,98.5829879 309.568795,98.4089373 300.570355,102.951659 C290.997547,107.781563 288.787099,119.939 281.424739,127.431879 C272.931047,136.177923 260.234022,139.458777 251.070233,147.604346 Z" opacity=".2"/>
    <path stroke="#535461" stroke-width="2" d="M293 110C293 110 407.43957 276.13679 482 440M241 179C241 179 343.834019 180.228515 392 267M273 330C273 330 400.712448 279.198072 427 328.597493M408 127C408 127 381.916773 180.564001 398.540483 280M537 380.610478C537 380.610478 517.986054 415.303762 449 373"/>
    <g transform="rotate(-27 954.59 -788.08)">
      <path fill="#FF3200" fill-rule="nonzero" d="M0.221088197,104.472569 C0.135337678,102.493211 0.0706875143,100.476816 0.0281035732,98.4227129 C-1.95790203,2.62460568 101.976391,-9.09494702e-13 101.976391,-9.09494702e-13 C54.3122567,55.1167192 101.976391,113.514196 101.976391,113.514196 C112.368305,134.877315 117.333766,151.80456 119.149521,165.069632 L0.221088197,104.472569 Z"/>
      <path fill="#000" fill-rule="nonzero" d="M0.221088197,104.472569 C0.135337678,102.493211 0.0706875143,100.476816 0.0281035732,98.4227129 C-1.95790203,2.62460568 101.976391,-4.54747351e-13 101.976391,-4.54747351e-13 C54.3122567,55.1167192 101.976391,113.514196 101.976391,113.514196 C112.368305,134.877315 117.333766,151.80456 119.149521,165.069632 L0.221088197,104.472569 Z" opacity=".1"/>
      <path stroke="#535461" stroke-width="2" d="M62.2941236,136.452943 C60.6270841,133.029914 58.8452524,129.734304 56.9437745,126.637224 C53.2084654,120.405608 50.5216433,113.597401 48.9915237,106.486814 C42.6649793,78.5150789 51.6879765,49.2638486 72.1300925,29.2446688 L102,-1.36424205e-12"/>
    </g>
  </g>
</svg>
