<svg xmlns="http://www.w3.org/2000/svg" width="184" height="40" viewBox="0 0 184 40">
  <defs>
    <linearGradient id="brand-letstalk-a" x1="50%" x2="50%" y1="-.001%" y2="99.999%">
      <stop offset="0%" stop-color="#FF008C"/>
      <stop offset="100%" stop-color="#59008C"/>
    </linearGradient>
  </defs>
  <g fill="none" fill-rule="evenodd">
    <path fill="#1D1D1B" d="M56.793622,10.4307143 C57.0049695,10.4307143 57.1099949,10.5361429 57.1099949,10.7662857 L57.1099949,23.4537143 L63.6773254,23.4537143 C63.8886729,23.4537143 63.9936983,23.5578571 63.9936983,23.7674286 L63.9936983,26.5098571 C63.9936983,26.7194286 63.8886729,26.8235714 63.6773254,26.8235714 L53.520978,26.8235714 C53.3096305,26.8235714 53.2046051,26.7194286 53.2046051,26.4892857 L53.2046051,10.7662857 C53.2046051,10.5361429 53.3096305,10.4307143 53.520978,10.4307143 L56.793622,10.4307143 Z M78.2050314,10.4307143 C78.4371246,10.4307143 78.54215,10.5361429 78.54215,10.7457143 L78.54215,13.4881429 C78.54215,13.6977143 78.4371246,13.8018571 78.2050314,13.8018571 L70.8571415,13.8018571 L70.8571415,17.0675714 L77.5930314,17.0675714 C77.8251246,17.0675714 77.93015,17.173 77.93015,17.3812857 L77.93015,19.9784286 C77.93015,20.188 77.8251246,20.2921429 77.5930314,20.2921429 L70.8571415,20.2921429 L70.8571415,23.4537143 L78.2050314,23.4537143 C78.4371246,23.4537143 78.54215,23.5578571 78.54215,23.7674286 L78.54215,26.5098571 C78.54215,26.7194286 78.4371246,26.8235714 78.2050314,26.8235714 L67.2681246,26.8235714 C67.0567771,26.8235714 66.9517517,26.7194286 66.9517517,26.4892857 L66.9517517,10.7662857 C66.9517517,10.5361429 67.0567771,10.4307143 67.2681246,10.4307143 L78.2050314,10.4307143 Z M93.725422,10.4307143 C93.9575153,10.4307143 94.0625407,10.5361429 94.0625407,10.7457143 L94.0625407,13.4881429 C94.0625407,13.6977143 93.9575153,13.8018571 93.725422,13.8018571 L89.4816169,13.8018571 L89.4816169,26.4892857 C89.4816169,26.7194286 89.3752949,26.8235714 89.1652441,26.8235714 L85.8913034,26.8235714 C85.6812525,26.8235714 85.5749305,26.7194286 85.5749305,26.4892857 L85.5749305,13.8018571 L81.3531678,13.8018571 C81.1418203,13.8018571 81.0354983,13.6977143 81.0354983,13.4881429 L81.0354983,10.7457143 C81.0354983,10.5361429 81.1418203,10.4307143 81.3531678,10.4307143 L93.725422,10.4307143 Z M101.167078,10.4307143 C101.378425,10.4307143 101.483451,10.5361429 101.483451,10.7662857 L101.483451,13.4662857 C101.483451,13.5087143 101.462705,13.6347143 101.440663,13.8648571 L100.639358,17.2977143 C100.596569,17.5291429 100.491544,17.6332857 100.322985,17.6332857 L98.5699678,17.6332857 C98.4221542,17.6332857 98.3158322,17.5291429 98.2522983,17.2977143 L97.471739,13.8648571 C97.4509932,13.6347143 97.4302475,13.5087143 97.4302475,13.4662857 L97.4302475,10.7662857 C97.4302475,10.5361429 97.5352729,10.4307143 97.7453237,10.4307143 L101.167078,10.4307143 Z M115.08058,10.7872429 C115.355461,10.8913857 115.503275,11.0379571 115.503275,11.2269571 L115.503275,13.2571 C115.503275,13.5296714 115.355461,13.6762429 115.08058,13.6762429 L109.949893,13.6762429 C108.916495,13.6762429 108.387478,14.0529571 108.387478,14.7858143 L108.387478,15.0378143 C108.387478,15.6446714 108.746639,16.0843857 109.464961,16.3556714 L113.117512,17.6966714 C114.236486,18.1145286 115.059834,18.6378143 115.544766,19.2665286 C116.030995,19.8733857 116.283834,20.8582429 116.283834,22.1761 L116.283834,22.7199571 C116.283834,25.6732429 114.088673,26.9293857 109.949893,26.9293857 C108.366732,26.9293857 106.615012,26.7609571 104.692139,26.4048143 C104.418554,26.3431 104.291486,26.1746714 104.291486,25.8815286 L104.291486,23.9979571 C104.291486,23.7048143 104.4393,23.5582429 104.734927,23.5582429 L110.836775,23.5582429 C111.828681,23.5582429 112.335656,23.2226714 112.335656,22.5322429 L112.335656,22.3226714 C112.335656,21.5692429 111.935003,21.2555286 110.85752,20.8582429 L107.206266,19.5391 C105.326181,18.8692429 104.4393,17.6966714 104.4393,14.9529571 L104.4393,14.4926714 C104.4393,11.4995286 106.338834,10.3051 110.541147,10.3051 C112.040029,10.3051 113.560953,10.4722429 115.08058,10.7872429 Z M138.478136,10.4307143 C138.71023,10.4307143 138.815255,10.5361429 138.815255,10.7457143 L138.815255,13.4881429 C138.815255,13.6977143 138.71023,13.8018571 138.478136,13.8018571 L134.234331,13.8018571 L134.234331,26.4892857 C134.234331,26.7194286 134.128009,26.8235714 133.916662,26.8235714 L130.644018,26.8235714 C130.433967,26.8235714 130.327645,26.7194286 130.327645,26.4892857 L130.327645,13.8018571 L126.104586,13.8018571 C125.894535,13.8018571 125.788213,13.6977143 125.788213,13.4881429 L125.788213,10.7457143 C125.788213,10.5361429 125.894535,10.4307143 126.104586,10.4307143 L138.478136,10.4307143 Z M145.749418,13.8647286 L144.334816,19.0988714 L147.903087,19.0988714 L146.46774,13.8647286 C146.382164,13.5921571 146.340672,13.5291571 146.087833,13.5291571 C145.854443,13.5291571 145.833697,13.5921571 145.749418,13.8647286 Z M148.832757,10.7237286 C149.254155,10.9963 149.634062,11.6880143 149.950435,12.8387286 L153.710604,26.4891571 C153.752096,26.7193 153.666519,26.8247286 153.435723,26.8247286 L150.205867,26.8247286 C150.056757,26.8247286 149.972477,26.7193 149.908943,26.4891571 L148.769223,22.2604429 L143.469977,22.2604429 L142.286172,26.4891571 C142.222638,26.7193 142.139655,26.8247286 142.012587,26.8247286 L138.782731,26.8247286 C138.549342,26.8247286 138.466358,26.7193 138.50785,26.4891571 L142.286172,12.8387286 C142.603842,11.6880143 142.983748,10.9963 143.405147,10.7237286 C143.829138,10.4524429 144.736765,10.3045857 146.108579,10.3045857 C147.502435,10.3045857 148.410062,10.4524429 148.832757,10.7237286 Z M160.004187,10.4307143 C160.215535,10.4307143 160.32056,10.5361429 160.32056,10.7662857 L160.32056,23.4537143 L166.887891,23.4537143 C167.097942,23.4537143 167.204264,23.5578571 167.204264,23.7674286 L167.204264,26.5098571 C167.204264,26.7194286 167.097942,26.8235714 166.887891,26.8235714 L156.731543,26.8235714 C156.518899,26.8235714 156.413874,26.7194286 156.413874,26.4892857 L156.413874,10.7662857 C156.413874,10.5361429 156.518899,10.4307143 156.731543,10.4307143 L160.004187,10.4307143 Z M182.976845,10.4307143 C183.272472,10.4307143 183.334709,10.5567143 183.16615,10.8292857 L178.057506,17.947 L183.779447,26.2591429 C184.053031,26.6358571 183.925964,26.8235714 183.420286,26.8235714 L179.810523,26.8235714 C179.577133,26.8235714 179.430616,26.7412857 179.34504,26.5934286 L174.06654,18.8264286 L174.06654,26.4892857 C174.06654,26.7194286 173.961514,26.8235714 173.750167,26.8235714 L170.476226,26.8235714 C170.266175,26.8235714 170.159853,26.7194286 170.159853,26.4892857 L170.159853,10.7662857 C170.159853,10.5361429 170.266175,10.4307143 170.476226,10.4307143 L173.750167,10.4307143 C173.961514,10.4307143 174.06654,10.5361429 174.06654,10.7662857 L174.06654,17.4455714 L178.923642,10.6402857 C179.02737,10.4937143 179.175184,10.4307143 179.367082,10.4307143 L182.976845,10.4307143 Z"/>
    <path fill="url(#brand-letstalk-a)" d="M1.91911259,0 L29.0808874,0 C30.140855,0 31,0.874319311 31,1.95257414 C31,3.03126288 30.140855,3.90558219 29.0808874,3.90558219 L23.0003576,3.90558219 C23.7401177,5.05629922 24.1703298,6.38752088 24.1703298,7.8124661 C24.1703298,9.87785564 23.2736638,11.7510251 21.8205788,13.1482004 C27.229142,15.6101794 31,21.1303235 31,27.5503873 C31,28.3040809 30.4985833,28.9145857 29.7575441,28.9145857 C29.0173576,28.9145857 28.5777652,28.4680971 28.318103,27.5503873 C27.5152395,24.7126462 25.8152835,22.2281041 23.4344071,20.5115744 C23.0221027,20.2143493 22.1569884,19.6914933 21.2121421,21.1320591 C20.7806508,21.788124 20.318887,22.5053696 20.0694578,22.8767926 C19.5330784,23.6756123 19.4239265,24.6779337 19.8839848,25.9401645 C20.3440431,27.2023952 25.0077298,40 25.0077298,40 L22.0452782,39.9626841 C22.0452782,39.9626841 16.042775,30.7356865 15.8329987,30.412861 C15.6227959,30.0900354 15.3708085,30.0896015 15.1674277,30.412861 C14.964047,30.7361205 8.95472176,39.9626841 8.95472176,39.9626841 L5.99227024,40 C5.99227024,40 10.6559569,27.2023952 11.1164416,25.9401645 C11.5764999,24.6779337 11.4673479,23.6756123 10.9305422,22.8767926 C10.681113,22.5053696 10.2193492,21.788124 9.7887107,21.1320591 C8.84343796,19.6914933 7.97789728,20.2143493 7.56601931,20.5115744 C5.18471653,22.2281041 3.48476054,24.7126462 2.68189695,27.5503873 C2.42223475,28.4680971 1.9830688,28.9145857 1.24245592,28.9145857 C0.501843039,28.9145857 0,28.3040809 0,27.5503873 C0,21.1303235 3.77085798,15.6101794 9.17942123,13.1482004 C7.7263362,11.7510251 6.82967018,9.87785564 6.82967018,7.8124661 C6.82967018,6.38752088 7.26030864,5.05629922 7.9996424,3.90558219 L1.91911259,3.90558219 C0.85914505,3.90558219 0,3.03126288 0,1.95257414 C0,0.874319311 0.85914505,0 1.91911259,0 Z M16.6507854,28.3639598 C16.3429428,28.376977 16.0244409,28.8494999 16.3391054,29.3333044 C16.65377,29.8171089 17.7209859,31.4577051 17.7209859,31.4577051 C18.4564823,31.4047686 19.1843039,31.3262317 19.9040244,31.2225284 C20.477072,31.1400863 20.6118065,30.8871195 20.477072,30.5178661 C20.342764,30.1481787 19.590639,28.0858265 19.590639,28.0858265 C18.6261794,28.2298831 17.6450912,28.3236066 16.6507854,28.3639598 Z M10.522928,30.5178661 C10.3881935,30.8871195 10.522928,31.1400863 11.0959756,31.2225284 C11.8156961,31.3262317 12.5439441,31.4047686 13.2790141,31.4577051 C13.2790141,31.4577051 14.34623,29.8171089 14.6608946,29.3333044 C14.9764119,28.8494999 14.6570572,28.376977 14.3492146,28.3639598 C13.3549088,28.3236066 12.374247,28.2298831 11.409361,28.0858265 C11.409361,28.0858265 10.657236,30.1481787 10.522928,30.5178661 Z M3.41440871,19.4216041 C3.00935274,20.0485974 2.64821335,20.7046623 2.33909168,21.3871955 C2.77655214,21.6666305 3.22296647,21.9317467 3.67790829,22.1829779 C4.00579044,22.3639164 4.32045498,22.1894865 4.5174401,21.962554 C5.10626358,21.2826243 5.75435315,20.6469529 6.47023629,20.0794047 C5.89718868,19.8116851 5.33480043,19.5240058 4.79245179,19.2046515 C4.57969081,19.0796867 4.36607708,19.0219773 4.16823921,19.0219773 C3.85272192,19.0219773 3.57771023,19.1686373 3.41440871,19.4216041 Z M26.2079746,19.2046515 C25.6651996,19.5240058 25.1032377,19.8116851 24.5306165,20.0794047 C25.2456469,20.6469529 25.8937364,21.2826243 26.4825599,21.962554 C26.6799714,22.1894865 26.9946359,22.3639164 27.3220917,22.1829779 C27.7778863,21.9317467 28.2238742,21.6666305 28.6609083,21.3871955 C28.3517866,20.7046623 27.9910736,20.0485974 27.5860177,19.4216041 C27.4222898,19.1686373 27.1477045,19.0219773 26.8321872,19.0219773 C26.6343493,19.0219773 26.4203092,19.0796867 26.2079746,19.2046515 Z M15.5004264,22.0831797 C14.0814513,22.0831797 12.6957335,21.9399909 11.3526532,21.6753086 C11.5146755,21.9235025 11.6579374,22.1421908 11.7623993,22.2983967 C12.1414464,22.8629076 12.3554865,23.4842601 12.3998295,24.1568134 C12.4364977,24.7191548 12.4723132,25.0476211 12.940899,25.0979541 C13.7825626,25.1882065 14.6348857,25.2381056 15.5,25.2381056 L15.5004264,25.2381056 C16.3651143,25.2381056 17.2178637,25.1882065 18.059101,25.0979541 C18.5276868,25.0476211 18.5635023,24.7191548 18.6001705,24.1568134 C18.6445135,23.4842601 18.8585536,22.8629076 19.2376007,22.2983967 C19.3424889,22.1421908 19.4857508,21.9235025 19.6473468,21.6753086 C18.3046929,21.9399909 16.9185487,22.0831797 15.5004264,22.0831797 Z M20.7942948,14.8248107 C19.1429456,15.4370512 17.3602729,15.7733278 15.5004264,15.7733278 C13.6401535,15.7733278 11.8570544,15.4370512 10.2057052,14.8248107 C9.81770418,14.681188 8.83277859,14.4329942 8.07852172,14.8938017 C7.37713531,15.3220663 6.71369626,15.7993622 6.10099579,16.331764 C8.85964019,17.9793027 12.0702418,18.9282537 15.5,18.9282537 L15.5004264,18.9282537 C18.9297582,18.9282537 22.1407862,17.9793027 24.8994306,16.331764 C24.2863037,15.7993622 23.6228647,15.3220663 22.9214783,14.8938017 C22.5953016,14.695073 22.2264875,14.6282516 21.881124,14.6282516 C21.4274613,14.6282516 21.0151569,14.7432365 20.7942948,14.8248107 Z M3.14451352,1.02575228 C3.17734437,1.44403706 3.24215333,1.92306858 3.30312491,2.26108086 C3.36281737,2.59996095 3.6169367,2.88026381 4.12474899,2.88026381 L6.6420653,2.88026381 C6.51457926,2.47326058 6.41267571,2.0545419 6.33976563,1.6258434 C6.30608203,1.42798256 6.2408467,1.02575228 5.59019888,1.02575228 L3.14451352,1.02575228 Z M25.4102275,1.02575228 C24.7591533,1.02575228 24.6943443,1.42798256 24.6602344,1.6258434 C24.5873243,2.0545419 24.4854207,2.47326058 24.3583611,2.88026381 L26.8756774,2.88026381 C27.3830633,2.88026381 27.6371826,2.59996095 27.6977278,2.26108086 C27.7578467,1.92306858 27.8226556,1.44403706 27.8559129,1.02575228 L25.4102275,1.02575228 Z M9.33206338,7.09305101 C9.33206338,9.89174061 12.0936924,11.7761916 15.5004264,11.7761916 C18.906734,11.7761916 21.668363,9.89174061 21.668363,7.09305101 C21.668363,4.29479531 18.906734,3.90558219 15.5004264,3.90558219 C12.0936924,3.90558219 9.33206338,4.29479531 9.33206338,7.09305101 Z M18.2522488,7.16941835 C18.2522488,6.6556744 18.6611421,6.23912525 19.1668225,6.23912525 C19.6712238,6.23912525 20.0801172,6.6556744 20.0801172,7.16941835 C20.0801172,7.6831623 19.6712238,8.09971145 19.1668225,8.09971145 C18.6611421,8.09971145 18.2522488,7.6831623 18.2522488,7.16941835 Z M10.9198828,7.16941835 C10.9198828,6.6556744 11.3287762,6.23912525 11.8336038,6.23912525 C12.3388579,6.23912525 12.7477512,6.6556744 12.7477512,7.16941835 C12.7477512,7.6831623 12.3388579,8.09971145 11.8336038,8.09971145 C11.3287762,8.09971145 10.9198828,7.6831623 10.9198828,7.16941835 Z M15.0429263,9.03000456 L15.0429263,7.16941835 L15.9570737,7.16941835 L15.9570737,9.03000456 L15.0429263,9.03000456 Z"/>
  </g>
</svg>
