<svg xmlns="http://www.w3.org/2000/svg" xmlns:xlink="http://www.w3.org/1999/xlink" width="545" height="500" viewBox="0 0 545 500">
  <defs>
    <path id="graphic-contact-b" d="M374.919113,240.481798 L402.080887,242.372964 C403.140855,242.460172 404,243.485176 404,244.661179 C404,245.837656 403.140855,246.709998 402.080887,246.610684 L396.000358,246.060425 C396.740118,247.356203 397.17033,248.821094 397.17033,250.346757 C397.17033,252.558132 396.273664,254.463848 394.820579,255.789893 C400.229142,259.076198 404,265.577469 404,272.579537 C404,273.401556 403.498583,273.983242 402.757544,273.859271 C402.017358,273.735934 401.577765,273.179116 401.318103,272.1427 C400.515239,268.947105 398.815283,266.016773 396.434407,263.842603 C396.022103,263.469073 395.156988,262.795468 394.212142,264.199962 C393.780651,264.837061 393.318887,265.533263 393.069458,265.891652 C392.533078,266.660804 392.423926,267.704513 392.883985,269.107085 C393.344043,270.513242 398.00773,284.972445 398.00773,284.972445 L395.045278,284.35862 C395.045278,284.35862 389.042775,273.560271 388.832999,273.188955 C388.622796,272.818008 388.370808,272.777837 388.167428,273.08342 C387.964047,273.388656 381.954722,281.917365 381.954722,281.917365 L378.99227,281.424181 C378.99227,281.424181 383.655957,269.068026 384.116442,267.831551 C384.5765,266.591807 384.467348,265.540786 383.930542,264.643961 C383.681113,264.227932 383.219349,263.428801 382.788711,262.698656 C381.843438,261.101845 380.977897,261.532293 380.566019,261.785923 C378.184717,263.239317 376.484761,265.53733 375.681897,268.292341 C375.422235,269.180565 374.983069,269.56774 374.242456,269.46277 C373.501843,269.358292 373,268.677271 373,267.923578 C373,261.503514 376.770858,256.372039 382.179421,254.423693 C380.726336,252.847085 379.82967,250.849868 379.82967,248.743228 C379.82967,247.289824 380.260309,245.965102 380.999642,244.844659 L374.919113,244.409299 C373.859145,244.336798 373,243.404453 373,242.325765 C373,241.24751 373.859145,240.421404 374.919113,240.481798 Z M389.650785,271.170503 C389.342943,271.136899 389.024441,271.582763 389.339105,272.138332 C389.65377,272.69488 390.720986,274.589471 390.720986,274.589471 C391.456482,274.654254 392.184304,274.690994 392.904024,274.699907 C393.477072,274.707159 393.611806,274.461204 393.477072,274.047679 C393.342764,273.634071 392.590639,271.331879 392.590639,271.331879 C391.626179,271.334298 390.645091,271.281239 389.650785,271.170503 Z M383.522928,272.466263 C383.388194,272.825938 383.522928,273.10763 384.095976,273.282421 C384.815696,273.502924 385.543944,273.699593 386.279014,273.871566 C386.279014,273.871566 387.34623,272.33301 387.660895,271.877528 C387.976412,271.421376 387.657057,270.879617 387.349215,270.819349 C386.354909,270.627186 385.374247,270.382883 384.409361,270.090305 C384.409361,270.090305 383.657236,272.105801 383.522928,272.466263 Z M376.414409,260.184235 C376.009353,260.77 375.648213,261.388929 375.339092,262.039496 C375.776552,262.373943 376.222966,262.695923 376.677908,263.005797 C377.00579,263.229527 377.320455,263.092184 377.51744,262.886794 C378.106264,262.269886 378.754353,261.703127 379.470236,261.211884 C378.897189,260.870785 378.3348,260.511861 377.792452,260.124378 C377.579691,259.97304 377.366077,259.889913 377.168239,259.867125 C376.852722,259.830855 376.57771,259.947509 376.414409,260.184235 Z M399.207975,262.818168 C398.6652,263.08814 398.103238,263.320747 397.530616,263.529844 C398.245647,264.23708 398.893736,265.01099 399.48256,265.826861 C399.679971,266.099883 399.994636,266.333608 400.322092,266.185849 C400.777886,265.980436 401.223874,265.758092 401.660908,265.518426 C401.351787,264.734844 400.991074,263.974024 400.586018,263.240039 C400.42229,262.944326 400.147704,262.748613 399.832187,262.705844 C399.634349,262.679072 399.420309,262.712315 399.207975,262.818168 Z M388.500426,264.428921 C387.081451,264.23939 385.695734,263.907538 384.352653,263.458569 C384.514676,263.73608 384.657937,263.980881 384.762399,264.156142 C385.141446,264.790599 385.355486,265.462991 385.399829,266.165941 C385.436498,266.753775 385.472313,267.099207 385.940899,267.21722 C386.782563,267.429872 387.634886,267.603045 388.5,267.726793 C389.365114,267.851212 390.217864,267.922098 391.059101,267.949228 C391.527687,267.964358 391.563502,267.623276 391.600171,267.035652 C391.644514,266.332773 391.858554,265.70738 392.237601,265.164051 C392.342489,265.013508 392.485751,264.802112 392.647347,264.561859 C391.304693,264.657938 389.918549,264.620141 388.500426,264.428921 Z M393.794295,257.452198 C392.142946,257.905531 390.360273,258.049887 388.500426,257.833054 C386.640153,257.619274 384.857054,257.069337 383.205705,256.255915 C382.817704,256.066242 381.832779,255.706227 381.078522,256.098332 C380.377135,256.461339 379.713696,256.877114 379.100996,257.35304 C381.85964,259.347258 385.070242,260.707561 388.5,261.130934 C391.929758,261.564852 395.140786,260.970261 397.899431,259.559705 C397.286304,258.912522 396.622865,258.320381 395.921478,257.778262 C395.595302,257.527364 395.226487,257.412386 394.881124,257.371537 C394.427461,257.318041 394.015157,257.391634 393.794295,257.452198 Z M376.144514,241.588059 C376.177344,242.012251 376.242153,242.499896 376.303125,242.845094 C376.362817,243.191206 376.616937,243.491363 377.124749,243.525704 L379.642065,243.699351 C379.514579,243.275663 379.412676,242.842086 379.339766,242.400521 C379.306082,242.196783 379.240847,241.782937 378.590199,241.741273 L376.144514,241.588059 Z M398.410227,243.180719 C397.759153,243.127841 397.694344,243.553875 397.660234,243.763207 C397.587324,244.21671 397.485421,244.656877 397.358361,245.08209 L399.875677,245.301392 C400.383063,245.346282 400.637183,245.065894 400.697728,244.704902 C400.757847,244.344694 400.822656,243.832279 400.855913,243.382744 L398.410227,243.180719 Z M382.332063,248.218941 C382.332063,251.094007 385.093692,253.305419 388.500426,253.654735 C391.906734,254.014408 394.668363,252.309784 394.668363,249.333755 C394.668363,246.358187 391.906734,245.708638 388.500426,245.427365 C385.093692,245.156459 382.332063,245.344321 382.332063,248.218941 Z M391.252249,249.091832 C391.252249,248.550667 391.661142,248.148898 392.166823,248.19488 C392.671224,248.240974 393.080117,248.719517 393.080117,249.263428 C393.080117,249.80734 392.671224,250.20859 392.166823,250.159752 C391.661142,250.111018 391.252249,249.632997 391.252249,249.091832 Z M383.919883,248.433587 C383.919883,247.903438 384.328776,247.507913 384.833604,247.550499 C385.338858,247.593351 385.747751,248.060275 385.747751,248.59317 C385.747751,249.126066 385.338858,249.521072 384.833604,249.475472 C384.328776,249.430138 383.919883,248.963737 383.919883,248.433587 Z M388.042926,250.740227 L388.042926,248.797793 L388.957074,248.880607 L388.957074,250.828015 L388.042926,250.740227 Z"/>
    <filter id="graphic-contact-a" width="112.9%" height="109%" x="-6.5%" y="-6.7%" filterUnits="objectBoundingBox">
      <feOffset dy="-1" in="SourceAlpha" result="shadowOffsetOuter1"/>
      <feGaussianBlur in="shadowOffsetOuter1" result="shadowBlurOuter1" stdDeviation=".5"/>
      <feColorMatrix in="shadowBlurOuter1" values="0 0 0 0 1   0 0 0 0 1   0 0 0 0 1  0 0 0 0.22 0"/>
    </filter>
    <linearGradient id="graphic-contact-c" x1="50.006%" x2="50.006%" y1="100.001%" y2="-.003%">
      <stop offset="0%" stop-color="gray" stop-opacity=".25"/>
      <stop offset="54%" stop-color="gray" stop-opacity=".12"/>
      <stop offset="100%" stop-color="gray" stop-opacity=".1"/>
    </linearGradient>
  </defs>
  <g fill="none" fill-rule="evenodd">
    <path fill="#FF3200" fill-rule="nonzero" d="M537.806746,123.661973 C537.705466,124.136002 537.609517,124.610032 537.497576,125.078735 C534.000755,141.190409 528.286437,156.716203 519.789587,170.974369 C519.50707,171.448398 519.224552,171.922428 518.936704,172.396457 C513.333903,181.570063 506.62993,190.025026 498.973905,197.573278 C494.741472,201.748998 490.125242,205.716997 484.634806,208.577152 C476.942865,212.593086 467.950277,214.222895 459.112274,215.554438 C449.933118,216.94457 440.62603,218.105675 431.345594,219.357326 C428.047779,219.794072 424.769509,220.257449 421.510784,220.747457 C412.544849,222.073674 403.64288,223.607612 394.954132,225.64221 C384.213133,228.150838 373.802627,231.437087 363.967817,236.060205 C363.182454,236.415283 362.405975,236.791666 361.63838,237.189354 C360.870785,237.572838 360.097859,237.961649 359.340926,238.355786 C358.583992,238.749923 357.837719,239.144059 357.096776,239.548849 C356.712979,239.756569 356.329182,239.96429 355.950715,240.182663 C355.572248,240.401036 355.199111,240.592779 354.831305,240.805826 C353.722557,241.423662 352.635131,242.057476 351.547705,242.696617 L351.505061,242.723248 C350.78544,243.144016 350.076481,243.575436 349.372853,244.006856 C345.35364,246.446243 341.419716,248.992154 337.485792,251.554043 L335.012431,253.151895 L331.179787,255.628565 C330.433514,256.113247 329.671249,256.597929 328.919646,257.077285 C328.386594,257.428812 327.853542,257.780339 327.272515,258.142519 C324.479323,259.900156 321.648816,261.625836 318.743683,263.271624 C318.056046,263.665761 317.363078,264.059898 316.66478,264.443382 C310.795334,267.715205 304.657186,270.480642 298.317129,272.709603 L298.231841,272.74156 C295.042266,273.853322 291.788249,274.771103 288.487649,275.489865 C286.584654,275.905307 284.676327,276.246182 282.746679,276.507164 C277.588468,277.237907 272.358271,277.311285 267.18156,276.725537 C257.016257,275.548453 247.490618,271.649694 237.330646,270.33413 C216.413684,267.671043 196.099071,276.251508 176.429451,282.973139 C171.592892,284.624252 166.720797,286.170618 161.813164,287.612235 C158.550886,288.576273 155.277946,289.487048 151.978354,290.365867 C131.762785,295.702607 111.13091,299.317814 90.3042342,301.172672 C81.5981548,302.025097 72.8400674,302.219167 64.1047268,301.753225 C60.7838126,301.550831 57.5002121,301.220608 54.2752473,300.687991 C43.2410702,298.983615 32.953166,295.409753 24.6482153,288.863886 C17.8464714,283.489777 12.9797063,276.48586 9.27499472,269.157045 C5.48262139,261.678811 2.80502804,253.686675 1.32718892,245.43427 C1.12462914,244.310447 0.943391452,243.181299 0.794136882,242.05215 C0.527610866,240.120525 0.328604774,238.178247 0.197118606,236.225317 C-0.520112712,225.815882 0.723878052,215.364403 3.86451659,205.413405 C7.38266,194.27105 13.2462324,183.576095 15.8262042,172.348522 C15.9328146,171.872717 16.0340945,171.398687 16.1300439,170.926433 C16.4824036,169.221137 16.7439667,167.498361 16.9136303,165.765372 C18.2302689,151.970583 13.1822661,138.521996 9.22168952,125.030799 C9.08309599,124.562096 8.94450246,124.088067 8.81123945,123.614037 C8.38479783,122.115607 7.9761246,120.618952 7.58521978,119.124073 C3.91782179,104.860581 2.89969241,89.5904429 6.16730137,75.353582 C6.26858126,74.8795526 6.39118322,74.4055231 6.50845467,73.9368199 C8.69600876,64.9375356 12.809648,56.5189025 18.5660916,49.2606596 C24.685529,41.5909702 32.7186231,35.2048886 41.3007608,29.5964282 C45.4834425,26.862326 49.8082713,24.3075382 54.2752473,21.932065 C57.4735595,20.2276896 60.7500527,18.6138591 64.1047268,17.0905736 C90.9972018,4.84037528 121.674346,-1.14091719 152.010337,0.179973755 C153.609494,0.249214006 155.20865,0.334432777 156.807806,0.451608587 C158.406962,0.568784397 160.155373,0.7072649 161.829156,0.861723922 C181.370843,2.75784157 200.384809,7.33302433 219.265512,12.3343009 C225.59284,14.0120455 231.909507,15.7323994 238.220843,17.4207963 C241.030027,18.1664606 243.833881,18.9121248 246.643065,19.6364844 C260.401138,23.1890419 274.361771,26.4060505 288.49831,28.8081546 C291.77125,29.3727289 295.047743,29.8875923 298.32779,30.3527448 C309.716256,32.0250968 321.196644,32.9980618 332.704315,33.2661615 C337.178399,33.3549311 341.654259,33.3158725 346.131896,33.1489857 C348.392037,33.0673177 350.653954,32.9448157 352.917649,32.7814798 C376.29198,31.1356923 398.882725,25.6284292 421.510784,20.4833459 C424.783724,19.7376817 428.061994,19.0026698 431.345594,18.2783102 C435.652655,17.3302514 439.959715,16.4141496 444.288097,15.5672881 C471.223217,10.2783981 495.23188,13.319643 520.274665,24.2329718 C525.96766,26.7096423 531.655326,29.7029517 535.141486,34.3527009 C538.627646,39.00245 539.501851,44.7121077 540.152175,50.2246969 C541.074355,58.0754762 541.676704,66.0274527 541.905916,74.0220387 C541.905916,74.4907419 541.905916,74.9647713 541.937899,75.4388007 C542.300375,91.5877578 541.095677,107.891174 537.806746,123.661973 Z" opacity=".1"/>
    <path fill="#FF3200" fill-rule="nonzero" d="M359.122197,170.997139 L357.362372,170.997139 L357.362372,171.62655 L357.362372,172.421315 L359.35684,172.421315 L359.122197,170.997139 Z M339.161516,170.997139 C339.158927,171.00945 339.158927,171.022165 339.161516,171.034477 C339.113521,171.423858 339.060193,171.81324 339.006865,172.207955 L339.006865,172.314635 L339.006865,172.421315 L354.258681,172.421315 L354.258681,172.335971 L355.325241,170.997139 L339.161516,170.997139 Z M298.285584,170.997139 L298.285584,125.034123 L315.830504,125.034123 C315.643856,124.911442 315.451875,124.783426 315.254562,124.666078 L314.998587,124.500724 L314.667953,124.298032 C314.475973,124.186019 314.283992,124.074005 314.081345,123.967325 C313.878699,123.860645 313.756044,123.785969 313.585394,123.695291 L313.468073,123.631283 L313.441409,123.631283 L298.285584,123.631283 L298.285584,121.097637 L297.874958,121.257657 L297.443001,121.460348 L297.411004,121.460348 L297.320346,121.508354 L297.048373,121.652372 L296.7764,121.79639 C296.50976,121.940408 296.24312,122.100427 295.97648,122.265781 L295.720505,122.436469 L295.187225,122.777845 C294.499294,123.236568 293.822028,123.716627 293.123431,124.164683 C292.947448,124.276696 292.771466,124.38871 292.59015,124.490056 C292.211521,124.714084 291.822227,124.927444 291.422266,125.119467 C291.251617,125.204811 291.0863,125.279487 290.888986,125.348829 L290.601015,125.460843 L290.334375,125.551521 C289.708745,125.769313 289.066783,125.936973 288.414566,126.052916 L288.414566,170.986471 L262.10785,170.986471 C262.10785,171.039811 262.14518,171.082483 262.161178,171.135823 C262.305164,171.562542 262.449149,171.983927 262.587802,172.410647 L288.451895,172.410647 L288.451895,221.675404 C288.586993,221.675404 288.720313,221.675404 288.851856,221.675404 L289.315809,221.702074 L290.153059,221.750079 L291.491593,221.910099 L292.104865,221.968773 L292.771466,222.038115 L292.872789,222.038115 L294.051338,222.182133 L294.30198,222.214137 L294.87259,222.294147 L295.688509,222.411495 L297.645647,222.326151 L297.912287,222.374157 C298.018943,222.374157 298.130932,222.406161 298.242921,222.427497 L298.242921,172.421315 L338.953537,172.421315 L338.953537,172.314635 L338.953537,172.207955 C339.006865,171.81324 339.060193,171.423858 339.108188,171.034477 C339.105599,171.022165 339.105599,171.00945 339.108188,170.997139 L298.285584,170.997139 Z M359.122197,170.997139 L357.362372,170.997139 L357.362372,171.62655 L357.362372,172.421315 L359.35684,172.421315 L359.122197,170.997139 Z M338.062959,170.997139 C337.998965,171.471864 337.940304,171.946589 337.876311,172.421315 L354.882619,172.421315 L356.039837,170.997139 L338.062959,170.997139 Z M298.285584,170.997139 L298.285584,125.034123 L315.830504,125.034123 C315.643856,124.911442 315.451875,124.783426 315.254562,124.666078 L314.998587,124.500724 L314.667953,124.298032 C314.475973,124.186019 314.283992,124.074005 314.081345,123.967325 C313.878699,123.860645 313.756044,123.785969 313.585394,123.695291 L313.468073,123.631283 L313.430743,123.631283 L298.285584,123.631283 L298.285584,121.097637 L297.874958,121.257657 L297.443001,121.460348 L297.411004,121.460348 L297.320346,121.508354 L297.048373,121.652372 L296.7764,121.79639 C296.50976,121.940408 296.24312,122.100427 295.97648,122.265781 L295.720505,122.436469 L295.187225,122.777845 C294.499294,123.236568 293.822028,123.716627 293.123431,124.164683 C292.947448,124.276696 292.771466,124.38871 292.59015,124.490056 C292.211521,124.714084 291.822227,124.927444 291.422266,125.119467 C291.251617,125.204811 291.0863,125.279487 290.888986,125.348829 L290.601015,125.460843 L290.334375,125.551521 C289.708745,125.769313 289.066783,125.936973 288.414566,126.052916 L288.414566,170.986471 L262.10785,170.986471 C262.10785,171.039811 262.14518,171.082483 262.161178,171.135823 C262.305164,171.557208 262.454482,171.983927 262.593135,172.410647 L288.451895,172.410647 L288.451895,221.67007 L288.851856,221.67007 L289.315809,221.69674 L290.153059,221.744745 L291.491593,221.910099 L292.104865,221.968773 L292.771466,222.038115 L292.872789,222.038115 L294.051338,222.182133 L294.30198,222.214137 L294.87259,222.294147 L295.688509,222.411495 L297.645647,222.326151 L297.912287,222.374157 C298.018943,222.374157 298.130932,222.406161 298.242921,222.427497 L298.242921,172.421315 L337.886976,172.421315 C337.95097,171.946589 338.009631,171.471864 338.073625,170.997139 L298.285584,170.997139 Z M431.360342,75.2839733 L542,75.2839733 C542,74.8092479 542,74.3345226 541.968003,73.8651312 L431.360342,73.8651312 L431.360342,18.0608994 C428.075336,18.7720984 424.795662,19.5081894 421.521321,20.2691723 L421.521321,73.8651312 L301.191961,73.8651312 L300.887991,73.5930976 L301.346612,73.1877142 L346.104825,32.958741 C341.625271,33.1294288 337.147494,33.1685448 332.671495,33.0760889 L298.280251,63.9812427 L298.280251,30.1690628 C294.995244,29.7032275 291.717348,29.1876082 288.446563,28.622205 L288.446563,62.4237168 L238.163566,17.2181285 C231.849527,15.5272528 225.530156,13.8043732 219.200119,12.1241655 L287.582648,73.5930976 L287.278679,73.8651312 L161.744503,73.8651312 L161.744503,0.682751069 C160.070003,0.526287282 158.395503,0.389381469 156.721003,0.272033629 C155.121162,0.154685789 153.521321,0.0693419054 151.92148,0 L151.92148,73.8651312 L63.9622326,73.8651312 L63.9622326,16.9354269 C60.6416741,18.4573928 57.3637781,20.0735926 54.1285444,21.7840263 L54.1285444,73.8651312 L6.34129937,73.8651312 C6.22397771,74.3345226 6.10132325,74.8092479 6,75.2839733 L54.1285444,75.2839733 L54.1285444,123.615281 L8.64507014,123.615281 C8.77839021,124.090007 8.91704308,124.564732 9.05569595,125.034123 L54.1285444,125.034123 L54.1285444,170.997139 L15.9670083,170.997139 C15.8710178,171.470086 15.7696946,171.944811 15.6630385,172.421315 L54.1285444,172.421315 L54.1285444,300.933201 C57.328226,301.429263 60.6398965,301.775972 63.9622326,302 L63.9622326,172.421315 L151.905482,172.421315 L151.905482,290.585256 C155.206487,289.705147 158.480828,288.793034 161.744503,287.827581 L161.744503,172.421315 L288.451895,172.421315 L288.451895,275.660744 C291.753908,274.940926 295.009318,274.021798 298.200259,272.908404 L298.285584,272.8764 L298.285584,172.421315 L421.521321,172.421315 L421.521321,220.843301 C424.792107,220.363241 428.071781,219.90274 431.360342,219.461797 L431.360342,172.421315 L518.988956,172.421315 C519.276928,171.946589 519.559566,171.471864 519.842205,170.997139 L431.360342,170.997139 L431.360342,125.034123 L537.557775,125.034123 C537.669764,124.564732 537.765755,124.090007 537.867078,123.615281 L431.360342,123.615281 L431.360342,75.2839733 Z M63.9622326,75.2839733 L151.905482,75.2839733 L151.905482,123.615281 L63.9622326,123.615281 L63.9622326,75.2839733 Z M63.9622326,170.997139 L63.9622326,125.034123 L151.905482,125.034123 L151.905482,170.997139 L63.9622326,170.997139 Z M161.744503,75.2839733 L288.451895,75.2839733 L288.451895,123.615281 L161.744503,123.615281 L161.744503,75.2839733 Z M161.744503,170.997139 L161.744503,125.034123 L288.451895,125.034123 L288.451895,170.997139 L161.744503,170.997139 Z M421.521321,170.997139 L298.285584,170.997139 L298.285584,125.034123 L421.521321,125.034123 L421.521321,170.997139 Z M421.521321,123.615281 L298.285584,123.615281 L298.285584,76.5801335 L300.013412,75.2839733 L421.521321,75.2839733 L421.521321,123.615281 Z M339.161516,170.997139 C339.158927,171.00945 339.158927,171.022165 339.161516,171.034477 C339.113521,171.423858 339.060193,171.81324 339.006865,172.207955 L339.006865,172.314635 L339.006865,172.421315 L354.258681,172.421315 L354.258681,172.335971 L355.325241,170.997139 L339.161516,170.997139 Z M359.122197,170.997139 L357.362372,170.997139 L357.362372,171.62655 L357.362372,172.421315 L359.35684,172.421315 L359.122197,170.997139 Z M298.285584,170.997139 L298.285584,125.034123 L315.830504,125.034123 C315.643856,124.911442 315.451875,124.783426 315.254562,124.666078 L314.998587,124.500724 L314.667953,124.298032 C314.475973,124.186019 314.283992,124.074005 314.081345,123.967325 C313.878699,123.860645 313.756044,123.785969 313.585394,123.695291 L313.468073,123.631283 L313.441409,123.631283 L298.285584,123.631283 L298.285584,121.097637 L297.874958,121.257657 L297.443001,121.460348 L297.411004,121.460348 L297.320346,121.508354 L297.048373,121.652372 L296.7764,121.79639 C296.50976,121.940408 296.24312,122.100427 295.97648,122.265781 L295.720505,122.436469 L295.187225,122.777845 C294.499294,123.236568 293.822028,123.716627 293.123431,124.164683 C292.947448,124.276696 292.771466,124.38871 292.59015,124.490056 C292.211521,124.714084 291.822227,124.927444 291.422266,125.119467 C291.251617,125.204811 291.0863,125.279487 290.888986,125.348829 L290.601015,125.460843 L290.334375,125.551521 C289.708745,125.769313 289.066783,125.936973 288.414566,126.052916 L288.414566,170.986471 L262.10785,170.986471 C262.10785,171.039811 262.14518,171.082483 262.161178,171.135823 C262.305164,171.562542 262.449149,171.983927 262.587802,172.410647 L288.451895,172.410647 L288.451895,221.675404 C288.586993,221.675404 288.720313,221.675404 288.851856,221.675404 L289.315809,221.702074 L290.153059,221.750079 L291.491593,221.910099 L292.104865,221.968773 L292.771466,222.038115 L292.872789,222.038115 L294.051338,222.182133 L294.30198,222.214137 L294.87259,222.294147 L295.688509,222.411495 L297.645647,222.326151 L297.912287,222.374157 C298.018943,222.374157 298.130932,222.406161 298.242921,222.427497 L298.242921,172.421315 L338.953537,172.421315 L338.953537,172.314635 L338.953537,172.207955 C339.006865,171.81324 339.060193,171.423858 339.108188,171.034477 C339.105599,171.022165 339.105599,171.00945 339.108188,170.997139 L298.285584,170.997139 Z" opacity=".1"/>
    <path fill="#FF3200" fill-rule="nonzero" d="M106.28482 41.9968288L107.054868 41.9968288C106.538171 41.782279 106.178438 41.3121736 106.112502 40.7653277 106.112502 39.7928118 107.593363 39 109.402707 39L132.428759 39C134.238102 39 135.713579 39.7928118 135.713579 40.7653277 135.713579 41.7325581 134.238102 42.5306554 132.428759 42.5306554L131.658711 42.5306554C132.17603 42.7415615 132.536579 43.2107106 132.601077 43.756871 132.601077 44.5866808 131.524087 45.2843552 130.086305 45.4693446L136.71518 45.4693446C138.519138 45.4693446 140 46.2621564 140 47.2346723 140 48.2071882 138.519138 49 136.71518 49L113.683743 49C111.879785 49 110.398923 48.2019027 110.398923 47.2346723 110.398923 46.4048626 111.475913 45.7124736 112.913695 45.5221987L106.28482 45.5221987C104.475477 45.5221987 103 44.7293869 103 43.756871 103 42.7843552 104.475477 41.9968288 106.28482 41.9968288zM353.28482 58.9968288L354.054868 58.9968288C353.540264 58.7807951 353.182802 58.3109729 353.117887 57.7653277 353.117887 56.7928118 354.593363 56 356.402707 56L379.428759 56C381.238102 56 382.718964 56.7928118 382.718964 57.7653277 382.718964 58.7325581 381.238102 59.52537 379.428759 59.52537L378.664095 59.52537C379.1787 59.7414036 379.536162 60.2112258 379.601077 60.756871 379.601077 61.5866808 378.524087 62.2843552 377.086305 62.4693446L383.71518 62.4693446C385.524523 62.4693446 387 63.2621564 387 64.2346723 387 65.2071882 385.524523 66 383.71518 66L360.689128 66C358.879785 66 357.398923 65.2019027 357.398923 64.2346723 357.398923 63.4048626 358.475913 62.7071882 359.913695 62.5221987L353.28482 62.5221987C351.480862 62.5221987 350 61.7293869 350 60.756871 350 59.7843552 351.480862 58.9968288 353.28482 58.9968288zM71.2897264 130.996829L72.0542782 130.996829C71.5390301 130.781693 71.1812582 130.311395 71.1174331 129.765328 71.1174331 128.798097 72.5980792 128 74.4017753 128L97.4298603 128C99.2335565 128 100.714203 128.798097 100.714203 129.765328 100.714203 130.737844 99.2335565 131.530655 97.4298603 131.530655L96.6599243 131.530655C97.1758037 131.742145 97.5343922 132.211493 97.5967695 132.756871 97.5967695 133.586681 96.519936 134.284355 95.0823632 134.469345L101.710274 134.469345C103.519354 134.469345 105 135.267442 105 136.234672 105 137.201903 103.519354 138 101.710274 138L78.7091094 138C76.9000291 138 75.4247672 137.207188 75.4247672 136.234672 75.4247672 135.410148 76.5016007 134.712474 77.9391735 134.522199L71.2897264 134.522199C69.4806461 134.522199 68 133.729387 68 132.756871 68 131.784355 69.5021828 130.996829 71.2897264 130.996829z" opacity=".1"/>
    <ellipse cx="388.5" cy="298" fill="#FF3200" fill-rule="nonzero" opacity=".1" rx="34.5" ry="114" transform="rotate(-78.45 388.5 298)"/>
    <path fill="#3A3768" fill-rule="nonzero" d="M376,201.261823 C376,201.261823 382.00066,171.416095 404.91083,174.180876 C404.91083,174.180876 420.743705,175.28251 424,185.785468 L424,209 L376,201.261823 Z"/>
    <polygon fill="#D48A9B" fill-rule="nonzero" points="502 212.029 296.387 195 270 200.494 271.649 237.288 273.447 237.506 275.494 292.758 477.256 329 498.702 310.877 498.702 250.98 501.447 249.37"/>
    <use fill="#000" filter="url(#graphic-contact-a)" xlink:href="#graphic-contact-b"/>
    <use fill="#A66C79" xlink:href="#graphic-contact-b"/>
    <polygon fill="#000" fill-rule="nonzero" points="503 212 502.449 249.516 480.275 260 480 220.824" opacity=".05"/>
    <polygon fill="#000" fill-rule="nonzero" points="498.734 251 499 309.85 478 328 479.349 259.801" opacity=".05"/>
    <polygon fill="#000" fill-rule="nonzero" points="274.155 239.877 479.893 265 480 260.232 274 238" opacity=".05"/>
    <polygon fill="#000" fill-rule="nonzero" points="499 253.2 499 251 479 260.146 479 265" opacity=".05"/>
    <polygon fill="#EFC6CD" fill-rule="nonzero" points="270 200.534 296.387 195 502 212.153 478.911 221"/>
    <polygon fill="#000" fill-rule="nonzero" points="480.005 213 490 213.699 473.435 219 465 218.352" opacity=".1"/>
    <polygon fill="#FFF" fill-rule="nonzero" points="480.005 213 490 213.698 473.435 219 465 218.347"/>
    <path fill="#D3DAE1" fill-rule="nonzero" d="M479,214.080477 C479.347759,213.799134 479.714065,214.335444 480.085008,214.467324 C480.2983,214.546452 480.516229,214.467324 480.729521,214.546452 C481.160742,214.651955 481.587326,215.197057 482,214.924506"/>
    <path fill="#D3DAE1" fill-rule="nonzero" d="M479 214.081284C479.343122 213.800168 479.714065 214.327261 480.085008 214.467819 480.2983 214.538098 480.516229 214.467819 480.729521 214.538098 481.160742 214.652302 481.587326 215.196965 482 214.924633M477 215.081724C477.347759 214.799351 477.718702 215.3288 478.089645 215.461162 478.2983 215.540579 478.520866 215.461162 478.729521 215.540579 479.165379 215.655293 479.591963 216.202389 480 215.920017"/>
    <polygon fill="#000" fill-rule="nonzero" points="436.005 208 446 208.704 429.435 214 421 213.347" opacity=".1"/>
    <polygon fill="#FFF" fill-rule="nonzero" points="436.005 208 446 208.699 429.435 214 421 213.352"/>
    <path fill="#D3DAE1" fill-rule="nonzero" d="M435,209.081284 C435.347759,208.800168 435.714065,209.327261 436.085008,209.467819 C436.2983,209.538098 436.516229,209.467819 436.729521,209.538098 C437.160742,209.652302 437.587326,210.196965 438,209.924633"/>
    <path fill="#D3DAE1" fill-rule="nonzero" d="M435 209.081724C435.343122 208.799351 435.714065 209.3288 436.085008 209.461162 436.2983 209.540579 436.516229 209.461162 436.729521 209.540579 437.160742 209.655293 437.587326 210.202389 438 209.920017M434 210.080208C434.347759 209.799806 434.718702 210.334323 435.089645 210.465761 435.2983 210.544624 435.520866 210.465761 435.729521 210.544624 436.165379 210.649775 436.591963 211.201817 437 210.921415"/>
    <polygon fill="#000" fill-rule="nonzero" points="457.002 211 467 211.698 450.439 217 442 216.347" opacity=".1"/>
    <polygon fill="#FFF" fill-rule="nonzero" points="457.002 210 467 210.699 450.439 216 442 215.346"/>
    <path fill="#D3DAE1" fill-rule="nonzero" d="M456 211.081793C456.347759 210.799182 456.718702 211.329078 457.089645 211.461552 457.2983 211.541036 457.516229 211.461552 457.729521 211.541036 458.160742 211.647016 458.591963 212.203407 459 211.920796M456 212.080208C456.347759 211.799806 456.718702 212.334323 457.089645 212.465761 457.2983 212.544624 457.516229 212.465761 457.729521 212.544624 458.160742 212.649775 458.591963 213.201817 459 212.921415M455 212.081284C455.343122 211.800168 455.714065 212.327261 456.085008 212.467819 456.2983 212.538098 456.516229 212.467819 456.729521 212.538098 457.160742 212.652302 457.587326 213.196965 458 212.924633"/>
    <ellipse cx="229" cy="395" fill="#FF3200" fill-rule="nonzero" opacity=".1" rx="108" ry="22"/>
    <path fill="url(#graphic-contact-c)" fill-rule="nonzero" d="M346.67858,213.177998 C345.529091,203.063555 340.979034,193.412736 340.979034,193.412736 L341.324944,190.002175 C341.324944,190.002175 341.399448,188.296895 341.287692,185.738975 C341.299905,184.141938 341.509034,182.552524 341.910332,181.006822 C342.84163,178.049227 340.744879,174.414849 340.510724,174.079122 C340.276568,173.743395 340.627801,167.258001 338.531049,164.076588 C336.434297,160.895175 322.470143,154.979984 322.470143,154.979984 C322.470143,154.979984 321.719783,153.407929 320.660764,151.569424 L320.756554,151.382909 C319.890113,149.808961 318.816138,148.3589 317.563531,147.071747 C316.706737,146.155159 315.881872,145.632917 315.216659,145.888709 C314.946104,145.00419 314.739793,144.101233 314.599341,143.186906 C314.737706,143.224209 314.881392,143.261512 315.019756,143.288157 C315.59613,143.422023 316.193744,143.436531 316.775919,143.330789 C318.074415,143.037694 318.936531,141.870643 319.660283,140.772869 C323.268399,135.283998 326.376275,129.262228 327.009558,122.766176 C327.179761,121.440306 327.116722,120.09483 326.823298,118.790742 C326.52396,117.776878 326.105966,116.80201 325.578019,115.886436 C324.645273,114.007852 323.463857,112.263771 322.065694,110.701319 C319.580457,108.079451 316.153279,106.475421 312.630311,105.526859 C308.661496,104.458103 304.526917,104.14894 300.443606,104.6156 C299.379265,104.738167 298.314924,104.914024 297.250583,104.983301 C295.900495,105.042854 294.548034,105.019719 293.200765,104.914024 L286.234653,104.50902 L286.202723,104.40244 L285.042591,104.333163 C284.584925,105.244422 285.042591,106.326209 285.612014,107.178849 C286.181436,108.03149 286.836006,108.921433 286.788111,109.928614 C286.740215,110.935795 286.011142,111.745803 285.441719,112.593114 C284.872297,113.440425 284.441239,114.548857 285.010661,115.380181 C285.090741,115.495145 285.18557,115.599063 285.292712,115.689263 C285.894064,116.312756 286.94244,116.382033 287.852452,116.371375 L288.012103,116.371375 C285.720339,119.393849 284.480988,123.085177 284.483812,126.880164 C284.515266,133.491485 288.229598,139.532207 294.110777,142.536768 C294.211889,142.883153 294.313002,143.240196 294.408792,143.602568 C295.46371,147.345676 295.842178,151.247433 295.52635,155.123867 L295.403951,155.390317 L295.329447,155.10788 C295.329447,155.10788 287.123378,160.682015 284.686037,162.158148 C282.248696,163.634281 279.800712,168.638212 279.683634,170.002436 C279.566557,171.366661 275.724286,191.941931 275.724286,191.941931 C274.94344,194.014631 274.299892,196.136621 273.797829,198.2941 L268.896538,202.605261 C268.896538,202.605261 258.785299,203.516521 255.858361,202.834408 L255.943508,203.399283 C253.362372,202.809258 250.733534,202.452558 248.088671,202.333482 C246.644173,202.147531 245.176232,202.344138 243.831307,202.903685 L243.730195,202.951646 L243.650369,202.988949 C242.109525,203.19983 240.605202,203.623053 239.180137,204.246594 C239.009842,204.315871 238.855513,204.385148 238.706505,204.454425 L238.738436,203.756326 L227.79701,203.191452 L222.20922,202.056374 C222.20922,202.056374 220.229545,200.457674 219.064092,200.69215 C217.898638,200.926626 215.455976,199.327926 215.455976,199.327926 C214.898728,198.890638 214.295597,198.515397 213.657239,198.208836 C213.47098,196.919218 213.353902,196.135855 213.353902,196.135855 C213.353902,196.135855 209.006069,178.859235 205.749186,168.70216 C203.567287,161.918343 200.427481,158.577059 198.575527,157.122242 C197.750663,155.683412 197.207849,154.756166 197.207849,154.756166 C196.851295,153.50918 194.892907,150.700797 194.392667,150.63152 C194.312842,150.503624 194.254303,150.439676 194.222373,150.439676 C194.115332,150.428214 194.007152,150.444738 193.908392,150.487637 C192.993059,145.926012 192.460888,140.207995 193.860497,135.225379 C197.739768,132.032914 199.99204,127.272032 200.001744,122.243934 C200.001744,122.169328 200.001744,122.094722 200.001744,122.020116 C200.001744,121.94551 200.001744,121.865575 200.001744,121.790969 C200.000663,117.830613 198.599964,113.998422 196.047717,110.973098 L195.866779,110.770596 C195.915206,110.736245 195.96142,110.698868 196.005144,110.658687 C196.819815,109.997012 197.206089,108.940978 197.010946,107.908923 C196.771469,106.885754 195.973213,106.081075 195.563442,105.111197 C195.317328,104.364566 195.120007,103.602685 194.972733,102.830385 C194.659168,101.733472 194.083851,100.7294 193.296396,99.9047638 L193.376221,100.117924 C191.290113,97.7678346 187.703284,96.6007835 184.473009,97.1230255 C182.07292,97.5067136 179.837804,98.6258037 177.427071,98.9721887 C175.697517,99.2173227 173.936033,99.0574527 172.195835,99.2333097 C170.581262,99.3995591 169.009545,99.8543936 167.555308,100.576218 C167.175436,100.738052 166.838378,100.986175 166.570793,101.300962 C166.323282,101.722701 166.157196,102.187295 166.081196,102.670515 C165.490487,104.82876 163.617247,106.368841 162.260212,108.170044 C160.710068,110.227901 159.812751,112.704474 159.684507,115.27893 C159.631513,115.933218 159.694572,116.591734 159.870766,117.224015 C159.987844,117.602374 160.168782,117.959418 160.253929,118.343106 C160.520014,119.515486 159.908018,120.682537 159.610003,121.844259 C159.23459,123.326226 159.367666,124.891551 159.987844,126.288645 C162.089917,130.999482 168.992169,132.571537 170.429029,137.516849 C171.528387,138.022896 172.6897,138.381264 173.882816,138.582649 C173.978606,139.072917 174.063754,139.568515 174.132936,140.069441 C174.100568,140.083139 174.070149,140.101057 174.042467,140.122731 C172.17987,141.93992 171.716882,145.451731 171.716882,145.451731 L171.49337,145.632917 C170.732366,146.261739 168.130053,148.372023 165.777859,149.997369 C162.983964,151.931796 158.327472,158.41186 155.070588,160.346287 C151.813705,162.280715 149.131565,174.201689 149.83403,178.534166 C150.536496,182.866644 153.442146,195.016765 152.276693,199.450493 C151.11124,203.884222 154.022212,224.118436 154.022212,224.118436 C155.975608,224.490995 157.886786,225.058707 159.72708,225.813059 L159.668541,226.697673 L159.492925,229.362173 C159.492925,229.362173 154.219115,248.461311 156.236042,263.164023 C158.252968,277.866736 155.304743,279.380172 155.304743,279.380172 C155.304743,279.380172 155.922061,285.897539 154.373445,288.173022 C152.824829,290.448506 152.510848,295.447108 152.510848,295.447108 C152.510848,295.447108 152.356519,306.664654 152.665178,309.83541 C152.973836,313.006165 153.128166,318.782801 152.042538,320.147025 C150.95691,321.51125 148.939984,330.447983 149.094313,333.176432 C149.248643,335.90488 145.21479,342.123824 147.386046,350.154627 C149.557302,358.185431 141,358.339972 141,358.339972 C141,358.339972 142.09095,370.596673 144.416535,374.103156 L144.757124,374.604082 C144.698585,374.806584 144.640046,375.019744 144.576186,375.248891 C143.698104,378.446291 142.495399,383.492854 143.330907,384.713196 C144.570864,386.535714 145.193504,386.226632 145.193504,386.226632 L145.656492,394.411976 C145.656492,394.411976 154.969476,402.293568 162.111204,401.995144 C169.252932,401.69672 167.853324,394.411976 167.853324,394.411976 L161.770615,378.616819 L161.563068,378.083919 L168.321634,365.294318 C168.321634,365.294318 170.184231,359.688209 170.647219,357.716479 C171.110207,355.744749 173.638017,348.758429 173.638017,348.758429 C173.638017,348.758429 180.024063,333.602752 180.157106,331.780234 C180.290149,329.957715 180.779745,320.115051 182.019703,318.137992 C183.25966,316.160933 186.676195,304.815491 186.676195,304.815491 L186.761342,304.890097 C187.942259,306.051928 188.388214,307.770594 187.921474,309.361128 C187.139183,312.238789 187.607493,318.14865 187.607493,318.14865 C187.607493,318.14865 187.298834,323.152582 186.676195,325.731818 C186.053555,328.311054 185.904547,349.376593 186.990175,354.375196 C187.857613,358.377275 187.831005,365.86985 187.788431,368.704878 C187.059357,371.715763 186.420753,375.456722 187.607493,375.899029 C189.629741,376.661076 199.874023,376.506535 199.874023,376.506535 C199.874023,376.506535 204.216535,374.98777 210.118306,380.295454 C216.020077,385.603139 234.172413,378.782018 234.172413,378.782018 C234.172413,378.782018 239.760203,377.263253 228.738952,372.872156 C221.049088,369.807981 216.083937,367.766974 212.837697,365.582084 C212.912201,365.438201 212.992026,365.294318 213.061209,365.139777 C213.061209,365.139777 208.559046,360.876576 212.28424,353.320054 C216.009433,345.763531 215.855104,339.374059 215.855104,339.374059 L216.477743,313.906766 L214.615146,280.099587 L213.172964,244.619101 L213.428406,244.533837 C213.673205,251.056534 214.945092,266.585241 221.602545,263.574356 C229.984231,259.785437 222.842502,249.932115 222.842502,249.932115 L219.080057,242.588752 L220.202937,242.205064 L215.993468,228.584139 C215.589502,225.925737 215.535826,223.22573 215.833817,220.553335 C215.917143,218.989931 215.885125,217.4225 215.738026,215.863815 C221.251313,214.899266 226.530444,213.876098 227.477708,214.110574 C228.595266,214.382353 234.848269,214.435643 237.306897,214.446301 C236.503319,215.075123 235.859393,215.698616 235.859393,215.698616 L245.86952,222.44513 C245.86952,222.44513 249.264768,220.585309 249.972555,218.613579 C250.66904,218.437147 251.312037,218.093258 251.845795,217.611727 C251.952229,219.9405 252.569547,222.461117 254.719516,222.519736 C255.257209,222.531012 255.790965,222.425569 256.284097,222.210654 L272.653662,218.965293 L271.248732,227.752815 L272.227926,229.495398 C271.733007,236.908038 271.163585,244.778971 270.663344,251.701343 L270.434511,253.214779 L270.551589,253.241424 C269.77462,263.899425 269.15198,271.972861 269.15198,271.972861 C270.068877,270.223352 271.491407,268.791443 273.233728,267.864202 L273.340162,283.680675 C273.340162,283.680675 274.159705,308.689674 274.159705,312.100235 C274.159705,315.510795 274.27146,323.125937 274.27146,323.125937 C274.27146,323.125937 276.022301,332.446359 277.065356,335.515863 C278.10841,338.585367 278.927952,352.568665 278.927952,352.568665 C278.927952,352.568665 281.375937,356.43219 280.327561,357.897665 C279.279185,359.36314 284.403987,362.555211 284.403987,362.555211 C284.403987,362.555211 281.141782,366.98894 280.907627,369.946535 C280.881018,370.287591 281.216285,370.649963 281.82296,371.012335 C281.631378,371.166876 281.434475,371.321417 281.216285,371.470629 C279.704921,372.483139 277.491092,373.186567 274.159705,372.898801 C265.075554,372.099451 258.673543,380.513943 264.261333,382.219223 C269.849123,383.924503 286.612494,384.26556 286.612494,384.26556 C286.612494,384.26556 291.689401,381.094804 295.659393,382.522976 C295.600854,385.858931 295.765827,388.917777 295.792436,389.322781 L295.74454,389.360084 C293.37106,391.491684 288.826324,395.158037 284.388022,396.655486 C278.001976,398.813731 276.586402,407.569279 284.85101,408.704356 C293.115618,409.839433 305.222497,407.340132 305.222497,407.340132 C305.222497,407.340132 311.507431,402.682585 316.281,401.659417 C321.05457,400.636249 325.130996,398.360766 324.316775,395.632318 C323.784604,393.889734 322.416926,389.322781 321.49095,386.253277 C321.437732,386.068538 321.384515,385.890905 321.331298,385.720377 C321.474984,385.400637 321.61867,385.070239 321.751713,384.729183 C321.751713,384.729183 319.30905,371.9982 321.288725,368.816787 C323.268399,365.635374 322.220023,333.799925 322.220023,333.799925 C322.220023,333.799925 318.84074,325.731818 320.591581,320.845125 C322.342422,315.958431 317.797686,309.020072 317.797686,309.020072 C317.797686,309.020072 318.292605,295.11671 319.623031,287.368343 C319.683344,287.037945 319.741882,286.718205 319.798647,286.409123 C322.026146,285.747062 324.197222,284.907736 326.291128,283.899164 C326.291128,283.899164 327.456581,266.388068 328.153724,262.412634 C328.222906,262.039604 328.318697,261.437427 328.435775,260.654064 L328.967945,257.845681 L329.595906,254.64828 L331.724588,243.750474 L335.566859,238.773188 L345.465231,228.648087 C345.465231,228.648087 347.844033,223.29777 346.67858,213.177998 Z M194.030791,150.652836 L193.956287,150.706126 C193.944894,150.667664 193.936006,150.628502 193.929679,150.588888 C193.960583,150.61435 193.994551,150.635833 194.030791,150.652836 Z M291.827765,163.064078 L291.444603,163.900731 L292.844211,162.504533 L290.944362,164.636133 L291.582967,163.293225 L291.827765,163.064078 Z M282.376417,182.62151 C282.00922,183.596717 281.615413,184.651859 281.205642,185.749633 L281.956002,183.506124 L282.376417,182.62151 Z"/>
    <path fill="#585B8A" fill-rule="nonzero" d="M252.201003,215.308704 C252.201003,215.308704 250.944736,223.888189 254.713537,223.998654 C258.482338,224.10912 261,217.381247 261,217.381247 L259.461714,212 L252.201003,215.308704 Z"/>
    <path fill="#000" fill-rule="nonzero" d="M252.201003,215.308704 C252.201003,215.308704 250.944736,223.888189 254.713537,223.998654 C258.482338,224.10912 261,217.381247 261,217.381247 L259.461714,212 L252.201003,215.308704 Z" opacity=".2"/>
    <path fill="#636992" fill-rule="nonzero" d="M163.365335 402.991551C156.485595 403.291191 147.512479 395.521561 147.512479 395.521561L147.065401 387.45229C147.065401 387.45229 146.471051 387.75193 145.27183 385.959343 144.46709 384.755524 145.624233 379.766769 146.471051 376.628427 146.88131 375.093426 147.217934 374 147.217934 374L162.313387 378.037264 163.033971 379.945502 168.893321 395.516304C168.893321 395.516304 170.239814 402.69191 163.365335 402.991551zM233.627104 380.454514C233.627104 380.454514 216.073491 387.294656 210.398263 381.973357 204.723034 376.652058 200.494329 378.170901 200.494329 378.170901 200.494329 378.170901 190.590396 378.325994 188.637062 377.561224 187.486178 377.117337 188.109133 373.314881 188.827116 370.287891 189.31281 368.196808 189.840738 366.469391 189.840738 366.469391 189.840738 366.469391 207.093432 360.538415 209.796424 364.185778 210.608307 365.257422 211.578836 366.195492 212.673633 366.966759 215.798968 369.255719 220.682304 371.330759 228.405894 374.523538 239.027809 378.930323 233.627104 380.454514 233.627104 380.454514z"/>
    <path fill="#FFD6D6" fill-rule="nonzero" d="M218.389937,242 L223.232494,251.813357 C223.232494,251.813357 230.200661,261.783166 222.023187,265.613558 C213.845712,269.44395 214.000205,243.537552 214.000205,243.537552 L218.389937,242 Z"/>
    <path fill="#DCE6F2" fill-rule="nonzero" d="M198,157 C198,157 203.403778,159.427176 206.646045,169.583973 C209.888312,179.74077 214.211334,197.029729 214.211334,197.029729 C214.211334,197.029729 217.144038,216.585831 216.676978,221.440182 C216.379814,224.113688 216.432744,226.81358 216.834475,229.473867 L221,243.119396 L212.663518,246 L199.851948,197.787221 L198,157 Z"/>
    <path fill="#000" fill-rule="nonzero" d="M198,157 C198,157 203.403778,159.427176 206.646045,169.583973 C209.888312,179.74077 214.211334,197.029729 214.211334,197.029729 C214.211334,197.029729 217.144038,216.585831 216.676978,221.440182 C216.379814,224.113688 216.432744,226.81358 216.834475,229.473867 L221,243.119396 L212.663518,246 L199.851948,197.787221 L198,157 Z" opacity=".05"/>
    <path fill="#000" fill-rule="nonzero" d="M163.261104 377.849662L164 379.671601 163.093909 381.282737C159.566624 382.708166 150.829315 381.568827 150.829315 381.568827 150.829315 381.568827 149.211294 379.656543 147 376.509558 147.420685 375.043976 147.765863 374 147.765863 374L163.261104 377.849662zM214 367.493121C209.523758 377.128693 194.307775 373.552552 190.079914 372.346823 189.383369 372.146723 189 372.013323 189 372.013323 189 372.013323 189.026998 371.228316 189.037797 369.991803 189.534557 367.985675 190.074514 366.328438 190.074514 366.328438 190.074514 366.328438 207.720302 360.638423 210.484881 364.137603 211.315262 365.165709 212.307904 366.065667 213.427646 366.805599 213.596639 367.050419 213.788176 367.280496 214 367.493121z" opacity=".1"/>
    <path fill="#565988" fill-rule="nonzero" d="M212.866281,355.146741 C209.214472,362.726216 213.631983,366.98033 213.631983,366.98033 C209.193054,376.999114 194.103907,373.284104 189.911288,372.024417 C189.22055,371.821586 188.840376,371.682807 188.840376,371.682807 C188.840376,371.682807 189.145586,361.210321 188.080029,356.203597 C187.014472,351.196874 187.164399,330.113123 187.774819,327.535034 C188.385239,324.956945 188.685094,319.944884 188.685094,319.944884 C188.685094,319.944884 188.229957,314.030759 188.990304,311.148423 C189.456261,309.562601 189.021536,307.849632 187.855137,306.675465 L187.774819,306.5954 C187.774819,306.5954 184.42822,317.975288 183.207381,319.939546 C181.986541,321.903805 181.536758,331.773135 181.381476,333.593277 C181.226194,335.413418 174.988133,350.588381 174.988133,350.588381 C174.988133,350.588381 172.557164,357.5647 172.102026,359.534296 C171.646889,361.503892 169.81563,367.124446 169.81563,367.124446 L162.479884,381.237215 C158.978003,382.75311 150.303618,381.541462 150.303618,381.541462 C150.303618,381.541462 148.632996,379.406398 146.346599,375.926245 C144.060203,372.446092 143,360.153465 143,360.153465 C143,360.153465 151.369175,359.998672 149.238061,351.960159 C147.106946,343.921645 151.063965,337.697936 150.914038,334.965055 C150.76411,332.232174 152.739942,323.286258 153.805499,321.919818 C154.871056,320.553377 154.715774,314.788706 154.410564,311.602124 C154.105355,308.415542 154.260637,297.190446 154.260637,297.190446 C154.260637,297.190446 154.565847,292.183723 156.086541,289.90988 C157.607236,287.636038 157.002171,281.108082 157.002171,281.108082 C157.002171,281.108082 159.888278,279.592187 157.912446,264.876263 C155.936614,250.160338 161.125181,231.046184 161.125181,231.046184 L161.301881,228.377355 L161.580318,224.053851 C161.580318,224.053851 205.107525,221.32097 208.609407,224.657007 C209.52475,225.582931 210.276097,226.656764 210.831548,227.832913 C212.029626,230.400311 212.876085,233.116588 213.348191,235.908791 L215.174096,281.876704 L217,315.706783 L216.38958,341.194102 C216.38958,341.194102 216.523444,347.556591 212.866281,355.146741 Z"/>
    <path fill="#000" fill-rule="nonzero" d="M201 264L196.31146 362.061216 190.683014 371C189.973961 370.798293 189.583708 370.660284 189.583708 370.660284 189.583708 370.660284 189.89701 360.245858 188.803201 355.266892 187.709391 350.287925 187.863294 329.321064 188.489898 326.757268 189.116503 324.193472 189.424308 319.209197 189.424308 319.209197 189.424308 319.209197 188.957103 313.32786 189.737611 310.461504 190.215922 308.884474 189.769671 307.181002 188.572346 306.013345L188.649298 305.482538 201 264zM151.296813 369.425074C151.296813 369.425074 163.047419 364.820442 164.854797 366.289116 166.662175 367.75779 151 370 151 370L151.296813 369.425074zM210 357C209.545884 357.16215 198.005991 361.473117 199.069157 366.058061 200.132323 370.643006 210 357 210 357z" opacity=".1"/>
    <path fill="#FFD6D6" fill-rule="nonzero" d="M174,133.645685 C174,133.645685 177.917196,143.069284 175.844977,147.899687 C173.772759,152.730091 198.217358,161 198.217358,161 C198.217358,161 191.070099,142.611043 197.990117,132.265569 C204.910135,121.920096 174,133.645685 174,133.645685 Z"/>
    <path fill="#505484" fill-rule="nonzero" d="M314.097825 403.593403C309.462813 404.625773 303.358811 409.325205 303.358811 409.325205 303.358811 409.325205 291.601579 411.846982 283.572509 410.701697 275.543439 409.556412 276.906366 400.727503 283.121736 398.549849 287.433251 397.04431 291.850831 393.328855 294.15773 391.199593 295.175947 390.247878 295.780514 389.586516 295.780514 389.586516L318.282063 385C318.282063 385 318.647985 386.274331 319.157094 388.032585 320.05864 391.13507 321.389748 395.737717 321.898857 397.490595 322.689036 400.270464 318.732836 402.561034 314.097825 403.593403zM309 384.775333C309 384.775333 299.461257 385.77498 295.488113 383.557013 291.514968 381.339045 285.837525 384.889876 285.837525 384.889876 285.837525 384.889876 269.486917 384.55666 264.038489 382.890581 258.590061 381.224502 264.832053 372.998237 273.689076 373.789625 276.916591 374.075982 279.100222 373.383518 280.575505 372.394283 282.116593 371.361674 283.190687 369.787595 283.574005 368L302.747357 369.108984 305.410322 375.752474 309 384.775333z"/>
    <path fill="#000" fill-rule="nonzero" d="M305,379 C305,379 282.829589,375.366972 280,372.482859 C281.533254,371.429435 282.601887,369.823628 282.983256,368 L302.059135,369.131338 L304.708563,375.90874 L305,379 Z" opacity=".1"/>
    <path fill="#575988" fill-rule="nonzero" d="M272,251.47463 L272.22876,284.720346 C272.22876,284.720346 273.021441,309.687906 273.021441,313.094993 C273.021441,316.50208 273.133161,324.098819 273.133161,324.098819 C273.133161,324.098819 274.835563,333.404425 275.857005,336.470804 C276.878446,339.537182 277.671127,353.506239 277.671127,353.506239 C277.671127,353.506239 280.05449,357.365829 279.033049,358.829812 C278.011607,360.293795 283.001773,363.482615 283.001773,363.482615 C283.001773,363.482615 279.809769,367.911828 279.602289,370.861088 C279.394809,373.810348 305,378 305,378 L295.024988,275.643653 L287.082218,250 L272,251.47463 Z"/>
    <path fill="#000" fill-rule="nonzero" d="M272 251.47463L272.22876 284.720346C272.22876 284.720346 273.021441 309.687906 273.021441 313.094993 273.021441 316.50208 273.133161 324.098819 273.133161 324.098819 273.133161 324.098819 274.835563 333.404425 275.857005 336.470804 276.878446 339.537182 277.671127 353.506239 277.671127 353.506239 277.671127 353.506239 280.05449 357.365829 279.033049 358.829812 278.011607 360.293795 283.001773 363.482615 283.001773 363.482615 283.001773 363.482615 279.809769 367.911828 279.602289 370.861088 279.394809 373.810348 305 378 305 378L295.024988 275.643653 287.082218 250 272 251.47463zM319 388.00681C311.612431 405.556222 294.042427 392.012367 294.042427 392.012367 294.042427 392.012367 294.042427 391.674167 294 391.092885 295.018244 390.157551 295.622826 389.507573 295.622826 389.507573L318.124947 385C318.124947 385 318.490878 386.278819 319 388.00681z" opacity=".1"/>
    <path fill="#575988" fill-rule="nonzero" d="M320.269406,386.31433 C312.92238,404.944221 294.681303,390.96648 294.681303,390.96648 C294.681303,390.96648 294.105383,381.321519 295.257224,376.89825 C296.409065,372.474982 293.992352,359.19453 293.992352,359.19453 C293.992352,359.19453 292.614448,347.393825 291.354958,344.67386 C290.095468,341.953896 290.208499,336.503322 290.208499,336.050882 C290.208499,335.598442 290.666006,331.962952 289.632578,329.466546 C288.59915,326.970141 288.017847,320.843568 288.017847,320.843568 C288.017847,320.843568 288.017847,312.220589 286.984419,307.115999 L283.426629,289.550672 L277,253.579013 L279.007649,253.238352 L314.978471,247 C314.978471,247 321.749576,281.066088 319.451275,284.557862 C318.956091,285.324349 318.520114,287.001039 318.159491,289.162106 C316.846176,296.89085 316.356374,310.767458 316.356374,310.767458 C316.356374,310.767458 320.829179,317.687132 319.112182,322.568163 C317.395185,327.449195 320.726913,335.502631 320.726913,335.502631 C320.726913,335.502631 321.760341,367.27458 319.806516,370.452308 C317.852692,373.630035 320.269406,386.31433 320.269406,386.31433 Z"/>
    <path fill="#D28690" fill-rule="nonzero" d="M317 153.546008C317 153.546008 284.163921 176.13249 291.562073 164.8366 295.548614 158.754197 294.816392 151.008141 293.254319 145.158862 292.464628 142.18379 291.374509 139.292655 290 136.527997 290 136.527997 317.900362 124.935404 314.201286 135.325292 313.334481 137.74585 312.96583 140.309859 313.116513 142.870014 313.338139 146.718445 314.686012 150.423849 317 153.546008zM258.566754 205.817301C258.566754 205.817301 245.035792 201.779853 242.782395 205.740813 240.528998 209.701774 243.459472 218.394035 247.543093 219.792663 251.626714 221.191292 261 215.055901 261 215.055901L258.566754 205.817301z"/>
    <path fill="#585B8A" fill-rule="nonzero" d="M273.586856,199 L267.89294,204.205901 C267.89294,204.205901 257.984673,205.108045 255.137715,204.428784 C255.137715,204.428784 257.760334,221.850775 254,224 L277,219.361919 L273.586856,199 Z"/>
    <path fill="#000" fill-rule="nonzero" d="M273.586856 199L267.89294 204.205901C267.89294 204.205901 257.984673 205.108045 255.137715 204.428784 255.137715 204.428784 257.760334 221.850775 254 224L277 219.361919 273.586856 199zM201 123.839106C201 133.316806 193.391825 141 184.006665 141 175.286959 136.768767 167.013329 133.325863 167.013329 123.839106 166.767059 117.55116 169.948499 111.631443 175.303542 108.413476 180.658586 105.195508 187.328191 105.195508 192.683235 108.413476 198.038278 111.631443 201.219718 117.55116 200.973448 123.839106L201 123.839106z" opacity=".1"/>
    <path fill="#FFD6D6" fill-rule="nonzero" d="M200.999997,122.988886 C201.005247,131.257569 195.059714,138.330605 186.913181,139.747105 C178.766648,141.163606 170.782529,136.512626 167.996322,128.727489 C165.210116,120.942352 168.430136,112.281627 175.625551,108.207539 C182.820966,104.133452 191.904293,105.827948 197.146775,112.222326 C199.633692,115.259824 200.994875,119.063202 200.999997,122.988886 Z"/>
    <path fill="#000" fill-rule="nonzero" d="M211,227.906356 C209.322533,228.971748 207.567052,229.902938 205.749243,230.691604 C205.749243,230.691604 197.165766,229.418193 195.92593,230.919192 C194.686094,232.420192 183.739511,233 183.739511,233 C183.739511,233 167.022924,232.192603 164.537954,229.998001 C163.769589,229.361615 162.914614,228.843187 162,228.45907 L162.275519,224.069866 C162.275519,224.069866 205.346561,221.295455 208.811743,224.682187 C209.713719,225.623021 210.453576,226.713122 211,227.906356 Z" opacity=".1"/>
    <path fill="#DCE6F2" fill-rule="nonzero" d="M212.951355,223.863847 C212.611126,225.787367 205.583282,228.731096 205.583282,228.731096 C205.583282,228.731096 196.971248,227.487716 195.727287,228.959581 C194.483327,230.431446 183.500326,231 183.500326,231 C183.500326,231 166.728124,230.202961 164.234888,228.050957 C161.741651,225.898952 156.186357,224.862802 156.186357,224.862802 C156.186357,224.862802 153.352892,204.703036 154.490531,200.287442 C155.62817,195.871847 152.789388,183.746232 152.108931,179.442223 C151.428474,175.138214 154.033349,163.246396 157.207043,161.322876 C160.380737,159.399356 164.915344,152.938029 167.631856,151.014509 C169.923083,149.393863 172.453532,147.294995 173.192466,146.662677 L173.410425,146.482015 C173.410425,146.482015 173.867607,142.969731 175.680387,141.168424 C177.493167,139.367116 194.148415,152.608586 194.148415,152.608586 C194.148415,152.608586 194.265368,153.628796 195.397691,151.705276 C195.652862,151.274875 197.848399,154.441775 198.231157,155.7808 C198.231157,155.7808 207.295056,171.641871 207.863876,174.909729 C208.432695,178.177588 210.808979,188.841966 211.260845,191.445626 C211.377798,192.115138 211.569177,194.463746 211.792452,197.609392 C211.83498,198.225768 211.872193,198.87934 211.920037,199.55948 C212.25495,204.777426 212.616442,211.44067 212.834401,216.477955 C212.834401,217.051823 212.882246,217.604436 212.898194,218.135795 C213.012967,220.043013 213.03071,221.954829 212.951355,223.863847 Z"/>
    <path fill="#000" fill-rule="nonzero" d="M155 183C155 183 161.566581 191 163.718089 191 165.869597 191 155 183 155 183zM169 200C169 200 158.759333 210.825948 160.125467 212.815973 161.491601 214.805999 169 200 169 200zM161 222C161 222 172.478261 209.360185 173 205L161 222zM176 223C176 223 189.783263 215.802278 190.94047 210.08912 192.097678 204.375962 176 223 176 223zM192.900257 153.485142L191 158.036728 194.163496 159.516528 197.273008 168.117529C197.273008 168.117529 205.845758 185.084474 205.500257 193.90985 205.154756 202.735225 207.055013 216 207.055013 216L212 215.09182 209.667866 189.13389C209.304722 185.114833 208.28749 181.180286 206.655527 177.482471 202.703856 168.528881 195.351157 152 194.886889 152 194.25527 152 194.697943 152.229716 194.697943 152.229716L192.900257 153.485142z" opacity=".1"/>
    <path fill="#575989" fill-rule="nonzero" d="M193.899769,153.4798 L192,158.036728 L195.16808,159.516528 L198.271396,168.117529 C198.271396,168.117529 206.841943,185.084474 206.49653,193.90985 C206.151118,202.735225 208.050887,216 208.050887,216 L213,215.09182 L210.663069,189.13389 C210.304269,185.114704 209.289021,181.17977 207.656901,177.482471 C203.706245,168.523539 196.355436,152 195.896685,152 C195.25983,152 195.70239,152.229716 195.70239,152.229716 L193.899769,153.4798 Z"/>
    <path fill="#FFD6D6" fill-rule="nonzero" d="M248.304783,219.993016 C245.927634,219.809794 240.224608,216.894418 237.959388,215.681924 L237,215.143037 L237.117258,206.246021 C237.677383,205.913001 238.25772,205.616024 238.854816,205.356858 C241.882216,204.020419 248.091586,202.204372 251.204265,208.051291 C255.40425,215.892089 251.316194,220.197793 248.304783,219.993016 Z"/>
    <path fill="#000" fill-rule="nonzero" d="M197,112.226115 C196.758087,112.37755 196.491985,112.48642 196.213258,112.547993 C194.254324,112.975404 192.026101,111.292142 190.347015,112.373862 C189.322666,113.038724 189.08506,114.415938 188.947776,115.629575 C188.708409,117.740248 188.469042,119.83685 188.229676,121.91938 C188.17947,122.660786 188.022989,123.391145 187.765023,124.088096 C186.93604,125.982425 184.660296,126.874185 182.585199,126.842524 C181.772334,126.900352 180.969537,126.634825 180.351696,126.103789 C179.987366,125.734421 179.792001,125.217306 179.39071,124.879599 C176.750636,122.668669 175.948054,128.087821 176.645033,129.628613 C177.764424,132.14559 181.740375,134.572864 180.071849,137.770533 C179.791232,138.290228 179.365679,138.717334 178.846854,139 C171.94901,136.841209 167.18925,130.536679 167.005503,123.315565 C166.821756,116.094451 171.254724,109.556312 178.03386,107.049956 C184.812996,104.5436 192.436643,106.624214 197,112.226115 Z" opacity=".1"/>
    <path fill="#353045" fill-rule="nonzero" d="M178.682127,125.043595 C179.085107,125.383004 179.289283,125.910973 179.660025,126.288094 C180.28903,126.829759 181.105736,127.100786 181.932831,127.042336 C184.044446,127.07466 186.360237,126.16957 187.198435,124.224704 C187.46573,123.516133 187.62688,122.771773 187.676638,122.015854 L188.407375,115.594025 C188.547075,114.354914 188.783489,112.948792 189.831237,112.269975 C191.539872,111.192487 193.807305,112.884143 195.800712,112.44776 C197.291976,112.067708 198.232549,110.591773 197.949939,109.075223 C197.718897,108.046222 196.934429,107.232718 196.531449,106.252204 C196.287164,105.498797 196.091538,104.730394 195.945785,103.951767 C194.833561,99.7711136 189.938698,97.4221897 185.683231,98.1225569 C183.319082,98.51584 181.121499,99.6472024 178.751977,99.9919986 C177.054088,100.239821 175.318588,100.078198 173.60458,100.261371 C172.012123,100.426133 170.46375,100.884581 169.037475,101.613618 C168.663043,101.779781 168.332028,102.03055 168.070323,102.34631 C167.826946,102.772782 167.66308,103.240138 167.586748,103.725495 C167.01183,105.880471 165.163495,107.469766 163.825602,109.285333 C162.295339,111.374285 161.409837,113.867444 161.278769,116.456016 C161.22607,117.117147 161.287877,117.782435 161.461453,118.422431 C161.574288,118.799552 161.751599,119.165898 161.837568,119.553794 C162.100848,120.733643 161.499065,121.913493 161.203546,123.087955 C160.836357,124.586672 160.968452,126.164702 161.579661,127.58108 C163.642918,132.338189 170.439845,133.927484 171.852961,138.921641 C173.107812,139.524908 174.463135,139.890217 175.850522,139.999129 C177.236772,140.026066 178.730485,139.428061 179.375252,138.194337 C181.067768,134.961873 177.027223,132.451326 175.888133,129.886904 C175.173515,128.308384 175.974102,122.780871 178.682127,125.043595 Z"/>
    <path fill="#000" fill-rule="nonzero" d="M313.669746,135.306039 C312.822169,137.715823 312.461696,140.268419 312.609036,142.817178 C311.792289,143.508161 310.901293,141.440488 309.957261,141.97323 C307.369128,143.460689 304.377925,146.999996 301.174581,146.999996 C298.396633,147.001792 295.657745,146.349267 293.18213,145.095838 C292.409957,142.134008 291.344019,139.255743 290,136.503391 C290,136.503391 317.286767,124.962399 313.669746,135.306039 Z" opacity=".1"/>
    <path fill="#D28690" fill-rule="nonzero" d="M317.999999,128.5 C317.999999,138.164983 310.164983,146 300.5,146 C290.835017,146 283,138.164983 283,128.5 C283,118.835017 290.835017,111.000001 300.5,111.000001 C305.141716,110.998605 309.593721,112.841901 312.87591,116.12409 C316.158099,119.406279 318.001395,123.858284 317.999999,128.5 Z"/>
    <path fill="#F0F3F7" fill-rule="nonzero" d="M318,157.033664 C318,157.033664 314.647109,160.681296 314.191844,160.980809 C313.736579,161.280321 304.015338,202.163756 303.843944,202.639767 C303.67255,203.115778 292.269507,240.030675 292.269507,240.030675 L274,249 L275.526476,203.848513 L288.916616,166.61271 C288.916616,166.61271 293.335362,161.595879 294.701156,159.772062 C296.066951,157.948246 313.120633,147 313.120633,147 L316.034327,152.995595 L318,157.033664 Z"/>
    <path fill="#000" fill-rule="nonzero" d="M315,153.991601 L294.331995,169 L294,160.758208 C295.349059,158.935607 312.12271,148 312.12271,148 L315,153.991601 Z" opacity=".1"/>
    <path fill="#F0F3F7" fill-rule="nonzero" d="M316,152.991601 L295.321617,168 L295,159.763553 C296.349736,157.935607 313.13181,147 313.13181,147 L316,152.991601 Z"/>
    <path fill="#585B8A" fill-rule="nonzero" d="M293.313583,156 L294,159.66092 L289.404676,164.415846 L293.072551,156.053366 C293.072551,156.053366 285.212817,161.630131 282.854897,163.108374 C280.496977,164.586617 278.139057,169.592365 278.04998,170.958539 C277.960903,172.324713 274.251108,192.913383 274.251108,192.913383 C274.251108,192.913383 271.458283,200.534072 272.244256,202.695402 C273.03023,204.856732 268,273 268,273 C269.361393,270.320651 271.823544,268.397871 274.717453,267.754105 L272.925433,227.48399 C272.925433,227.48399 275.1052,200.694171 275.215236,200.352627 C275.325272,200.011084 280.297864,184.481527 280.297864,184.481527 L293.313583,156 Z"/>
    <path fill="#000" fill-rule="nonzero" d="M295,161 L294.643123,168.508879 C294.643123,168.508879 289.662585,184.572516 287.98841,187.200623 C286.314236,189.828731 281.218237,205.49547 281.218237,205.49547 L278.347474,232.709792 L273.424667,235 L271,230.435674 L275.030614,204.154599 C275.030614,204.154599 282.63525,181.976589 283.758364,179.686381 L289.368686,167.607813 L295,161 Z" opacity=".1"/>
    <path fill="#663D5C" fill-rule="nonzero" d="M295,160 L294.648601,167.509967 C294.648601,167.509967 289.671329,183.575933 287.993007,186.204422 C286.314685,188.83291 281.232517,204.501921 281.232517,204.501921 L278.379371,231.714824 L273.45979,234 L271,229.429648 L275.027972,203.144763 C275.027972,203.144763 282.627622,180.958173 283.744755,178.672997 L289.393357,166.608771 L295,160 Z"/>
    <path fill="#D28690" fill-rule="nonzero" d="M236 217.413495L245.837562 224C245.837562 224 252.776988 220.237024 248.735698 217.802768 244.694409 215.368512 241.109307 215 239.810512 215 238.511718 215 236 217.413495 236 217.413495zM243.697574 204.868935C243.261252 205.135686 242.997153 205.605824 243.000023 206.110688 243.000023 208.115012 243.230792 213.422091 244.940579 211.026177 247.038477 208.094402 246.655611 205.461473 249.86015 207.362747 251.851846 208.581321 253.594895 210.153927 255 212L254.108393 205.703641C254.108393 205.703641 247.520993 202.509088 243.697574 204.868935z"/>
    <path fill="#000" fill-rule="nonzero" d="M319.526054,283.759666 C319.033325,284.530271 318.599509,286.215971 318.240673,288.38865 C298.220865,294.387599 283.572878,281.704718 283.572878,281.704718 C281.800654,275.703986 280.352511,269.612411 279.234718,263.456353 C278.875882,261.347891 278.956218,257.259401 279.288275,252.271872 L315.080778,246 C315.080778,246 321.812961,280.222373 319.526054,283.759666 Z" opacity=".1"/>
    <path fill="#585B8A" fill-rule="nonzero" d="M339.769037,182.134275 C338.863585,185.088758 339.204461,191.098869 339.204461,191.098869 L331.028762,229.682824 C331.028762,229.682824 327.055426,259.413975 326.373674,263.385227 C325.691922,267.356478 324.557444,284.833178 324.557444,284.833178 C301.393853,296.182653 283.545797,280.750135 283.545797,280.750135 C281.783696,274.778949 280.343553,268.717531 279.231584,262.592041 C278.09178,255.852625 281.447279,228.852374 283.034483,216.858769 C283.508513,213.308066 283.828085,211.072241 283.828085,211.072241 L289.788089,188.942895 C289.788089,188.942895 297.111597,170.273754 299.838606,164.827923 C302.565614,159.382092 313.516256,147.148934 313.516256,147.148934 C314.874434,146.286544 317.047519,149.331525 318.661354,152.105013 C319.881051,154.20243 320.791829,156.150792 320.791829,156.150792 C320.791829,156.150792 334.416218,162.049112 336.456148,165.20056 C338.496078,168.352009 338.160528,174.846549 338.389554,175.187246 C338.61858,175.527944 340.679815,179.185115 339.769037,182.134275 Z"/>
    <path fill="#000" fill-rule="nonzero" d="M307.385708,168.993514 C307.385708,168.993514 308.419046,175.020651 305.771117,176.839459 C303.214681,178.599596 284.184033,215.685153 283,218 C283.478995,214.437056 283.801914,212.196881 283.801914,212.196881 L289.824338,190.02982 C289.824338,190.02982 297.22993,171.324363 299.980117,165.862604 C302.730303,160.400845 313.806399,148.149224 313.806399,148.149224 C315.178801,147.285156 317.369263,150.336061 319,153.114944 C316.54044,158.176672 311.411422,167.745417 307.385708,168.993514 Z" opacity=".1"/>
    <path fill="#585B8A" fill-rule="nonzero" d="M307.396472,167.995114 C307.396472,167.995114 308.424428,174.02271 305.781881,175.841657 C303.139333,177.660604 284.200179,214.684977 283,217 C283.478995,213.442118 283.801914,211.201773 283.801914,211.201773 L289.824338,189.027689 C289.824338,189.027689 297.224548,170.320806 299.980117,164.863965 C302.735685,159.407124 313.801017,147.149235 313.801017,147.149235 C315.173419,146.285102 317.369263,149.336239 319,152.115334 C316.551203,157.172113 311.416804,166.746922 307.396472,167.995114 Z"/>
    <polygon fill="#FF3200" fill-rule="nonzero" points="334 222.324 327.607 255.633 327.607 255.639 326.996 258.826 326.996 258.832 325.62 266 319.748 264.755 317.012 264.175 279.14 256.139 276.355 255.548 270 254.202 271.243 245.932 271.759 242.494 276.345 212"/>
    <path fill="#D28690" fill-rule="nonzero" d="M298.337092,250 C298.337092,250 283.164082,255.488084 286.471637,262.006189 C289.779193,268.524295 311,256.974105 311,256.974105 L298.337092,250 Z"/>
    <path fill="#000" fill-rule="nonzero" d="M309 296C309 296.476312 309.499925 302.573099 311.490278 304.719303 313.480632 306.865506 309 296 309 296zM294 317C294 317 296.676805 324.486018 307.284494 327.550656 317.892184 330.615295 294 317 294 317zM318.999999 128.655863C319.001663 134.989779 315.613829 140.841614 310.116736 144 309.098825 143.431114 308.195395 142.678588 307.452289 141.780609 306.6796 140.843887 306.077435 139.56654 306.541049 138.44886 306.914071 137.549395 307.899916 136.979911 308.139716 136.048512 308.252692 135.478932 308.223408 134.890325 308.054454 134.334737 307.857285 133.45656 307.670774 132.578384 307.478934 131.70553 307.313738 130.96041 307.020649 130.082234 306.279933 129.901276 305.539217 129.720319 304.921065 130.337704 304.340216 130.79542 302.917402 131.918421 300.189009 132.679507 298.478434 131.758753 296.76786 130.837998 297.24746 127.756397 296.970358 126.090523 296.963357 125.797563 296.826758 125.522756 296.597335 125.340081 296.348381 125.257578 296.082584 125.23927 295.824646 125.286858 294.902748 125.286858 294.162032 124.461905 293.895587 123.578406 293.706806 122.676437 293.603325 121.758743 293.586511 120.837431 293.485262 119.916676 293.149542 118.942699 292.360866 118.469016 291.7307 118.176077 291.031993 118.061919 290.341216 118.139034L287 118.17629C291.546147 112.037699 299.52088 109.502153 306.783506 111.886175 314.046132 114.270197 318.959861 121.036496 318.973355 128.671829L318.999999 128.655863z" opacity=".1"/>
    <path fill="#663D5C" fill-rule="nonzero" d="M304.776114,130.610644 C305.35325,130.152133 305.988629,129.544339 306.70343,129.720279 C307.418232,129.89622 307.725331,130.786585 307.889471,131.522336 L308.461312,134.150779 C308.630535,134.708791 308.661439,135.300047 308.551324,135.872863 C308.281288,136.811212 307.30704,137.376354 306.931108,138.277382 C306.470458,139.397003 307.074068,140.67657 307.836523,141.609588 C309.22724,143.297284 311.150057,144.454456 313.284897,144.888478 C313.842255,145.023313 314.421871,145.03604 314.984536,144.925798 C316.244704,144.632564 317.102466,143.46496 317.780204,142.371996 C321.280083,136.880522 324.292838,130.861226 324.907038,124.367424 C325.075547,123.042906 325.014636,121.698993 324.727014,120.395436 C324.440072,119.382235 324.034837,118.406866 323.519794,117.489753 C322.618565,115.616104 321.473652,113.871591 320.115221,112.302175 C317.706076,109.689726 314.380926,108.084936 310.965764,107.135924 C307.124447,106.062654 303.113539,105.745857 299.15301,106.202907 C298.094045,106.325532 297.077439,106.501472 296.034358,106.570782 C294.72473,106.632097 293.412573,106.610729 292.105598,106.506804 L284.311616,106.037629 C283.866851,106.949321 284.311616,108.031621 284.841099,108.884666 C285.370581,109.73771 286.027139,110.622744 285.984781,111.635734 C285.942422,112.648725 285.227621,113.448454 284.676959,114.301499 C284.126297,115.154543 283.708006,116.25817 284.258668,117.089888 C284.80933,117.921606 285.931833,117.974922 286.90608,117.964259 L290.83484,117.921606 C291.519189,117.850768 292.209711,117.970649 292.830989,118.268156 C293.614623,118.742662 293.948197,119.723663 294.048799,120.640686 C294.070779,121.563244 294.173544,122.482052 294.355899,123.386423 C294.625935,124.271457 295.356621,125.108507 296.272625,125.097844 C296.529053,125.046326 296.794601,125.06661 297.040375,125.156491 C297.268099,125.337342 297.403962,125.610952 297.411013,125.902905 C297.686344,127.571673 297.17804,130.653297 298.909448,131.580983 C300.640856,132.508668 303.362396,131.735597 304.776114,130.610644 Z"/>
    <path fill="#000" fill-rule="nonzero" d="M327.595957,165.049195 C323.557039,164.618435 319.759334,167.053184 318.448939,170.913446 C316.315524,177.013338 312.758054,188.01885 313.648755,192.367501 C314.902136,198.531658 316.379526,208.808825 316.379526,208.808825 C316.379526,208.808825 322.859775,212.557661 319.579649,216.338631 C316.299523,220.1196 315.371487,225.47508 315.371487,225.47508 C315.371487,225.47508 311.163326,227.301299 310.256624,231.184022 C309.349923,235.066745 303.205687,240.427581 303.205687,240.427581 L294,249.676496 C294,249.676496 309.232585,265.207389 312.304703,266 L321.739732,254.924867 L332.881493,240.084831 L342.545864,229.909418 C342.545864,229.909418 344.817951,224.553937 343.681908,214.378525 C342.545864,204.203112 338.10836,194.515048 338.10836,194.515048 L338.449707,191.087541 C338.449707,191.087541 339.49508,166.532663 327.595957,165.049195 Z" opacity=".1"/>
    <path fill="#585B8A" fill-rule="nonzero" d="M328.60717,165.048096 C324.570037,164.622613 320.776478,167.056372 319.466319,170.912411 C317.331853,177.012369 313.77263,188.018001 314.66377,192.366699 C315.912433,198.530924 317.390551,208.808203 317.390551,208.808203 C317.390551,208.808203 323.873992,212.55708 320.59225,216.33809 C317.310508,220.1191 316.387351,225.474639 316.387351,225.474639 C316.387351,225.474639 312.177117,227.300878 311.264633,231.183643 C310.352148,235.066409 304.215558,240.427303 304.215558,240.427303 L295,249.676318 C295,249.676318 310.240089,265.20738 313.31372,266 L322.753397,254.924746 L333.873966,240.084548 L343.543098,229.909025 C343.543098,229.909025 345.82164,224.553486 344.679701,214.377963 C343.537762,204.202439 339.108744,194.51427 339.108744,194.51427 L339.450259,191.086725 C339.450259,191.086725 340.512156,166.53158 328.60717,165.048096 Z"/>
    <path fill="#000" fill-rule="nonzero" d="M319 200C319 200 328.414844 212.333426 332.405242 209.606269 336.39564 206.879113 319 200 319 200zM322 191C322.993696 191.348277 331.160639 203.29853 335.352796 201.883655 339.544953 200.46878 322 191 322 191zM325 211C325 211 325.547097 217.843296 332.194068 216.913086 338.841039 215.982877 325 211 325 211z" opacity=".1"/>
    <polygon fill="#000" fill-rule="nonzero" points="294.003 157 290 165 295 160.451" opacity=".1"/>
    <polygon fill="#F0F3F7" fill-rule="nonzero" points="294.003 156 290 164 295 159.451"/>
    <polygon fill="#000" fill-rule="nonzero" points="279 257 276.179 256.394 271 246.527 271.522 243" opacity=".3"/>
    <polygon fill="#000" fill-rule="nonzero" points="328 256 327.366 259.147 327.366 259.152 319.841 265 317 264.427" opacity=".3"/>
    <path fill="#000" fill-rule="nonzero" d="M213,218.320835 C211.588881,218.55559 210.220522,218.769004 208.969757,218.929065 C202.021063,219.84141 185.493862,211.651648 185.493862,211.651648 C185.493862,211.651648 165.326613,194.81862 159.516436,178.897936 C153.706259,162.977253 166.46513,160.587017 166.46513,160.587017 C171.275765,157.855317 181.736222,165.474197 183.216828,166.728004 C184.697434,167.981811 185.953545,171.161679 185.835951,173.210454 C185.718358,175.259228 189.256847,177.873549 189.256847,177.873549 C189.256847,177.873549 195.296866,188.33617 196.777472,189.472599 C198.258078,190.609029 198.600168,191.633416 199.054505,193.570148 C199.508843,195.50688 203.496325,197.096814 205.206772,196.979436 C206.91722,196.862059 208.948377,197.550319 208.948377,198.457328 C208.948377,199.188271 210.621409,199.551075 211.995112,199.668453 C212.401343,205.49999 212.802229,213.140211 213,218.320835 Z" opacity=".1"/>
    <path fill="#000" fill-rule="nonzero" d="M213 217.47556C211.931402 217.646291 210.905548 217.801016 209.943811 217.929065 202.997925 218.84141 186.482748 210.651648 186.482748 210.651648 186.482748 210.651648 166.323652 193.81862 160.515823 177.897936 154.707995 161.977253 167.461708 159.587017 167.461708 159.587017 172.270398 156.855317 182.721284 164.474197 184.201292 165.728004 185.681299 166.981811 186.936902 170.161679 186.824699 172.210454 186.712496 174.259228 190.238869 176.873549 190.238869 176.873549 190.238869 176.873549 196.276446 187.33617 197.756454 188.472599 199.236461 189.609029 199.578413 190.633416 200.03791 192.570148 200.497407 194.50688 204.477933 196.091479 206.18769 195.979436 207.897446 195.867394 209.927782 196.550319 209.927782 197.457328 209.927782 197.990863 210.878834 198.348332 211.936745 198.524398 211.979489 199.143299 212.01689 199.799547 212.064977 200.482472 212.417614 205.72712 212.780937 212.417649 213 217.47556zM239 206L238.534483 216 238.034483 216 237 215.478079 237.126437 206.861169C237.730405 206.538634 238.356167 206.251007 239 206z" opacity=".1"/>
    <path fill="#DCE6F2" fill-rule="nonzero" d="M166.471964,160.585253 C166.471964,160.585253 153.702793,162.975374 159.51766,178.89529 C165.332528,194.815206 185.516057,211.652758 185.516057,211.652758 C185.516057,211.652758 202.051251,219.83679 209.010903,218.929824 C215.970556,218.022859 226.567845,215.632737 227.937308,215.974183 C229.306771,216.315629 238.545296,216.315629 238.545296,216.315629 L239,205.645444 L228.301072,205.074589 L222.82857,203.938214 C222.82857,203.938214 220.886714,202.337687 219.747278,202.572431 C218.607842,202.807175 216.216632,201.206647 216.216632,201.206647 C216.216632,201.206647 214.387115,199.728827 213.006953,199.728827 C211.626791,199.728827 209.016253,199.387381 209.016253,198.480415 C209.016253,197.573449 206.962059,196.879887 205.271628,197.002594 C203.581197,197.125301 199.542352,195.524774 199.071599,193.566795 C198.600846,191.608816 198.274529,190.611153 196.792727,189.474779 C195.310926,188.338404 189.266031,177.870953 189.266031,177.870953 C189.266031,177.870953 185.730035,175.256757 185.842374,173.213417 C185.954713,171.170076 184.702938,167.979691 183.221136,166.725944 C181.739335,165.472198 171.254385,157.859021 166.471964,160.585253 Z"/>
    <path fill="#000" fill-rule="nonzero" d="M199 197C199 197 193.914163 202.061638 195.211967 203L199 197zM205 201C205 201 198.570182 205.660386 200.293416 205.985647 202.016651 206.310909 205 201 205 201zM194 208C194.932642 208.435929 208.764112 216.110313 214 215.998796L194 208zM195 153.350536C195 153.350536 192.613394 161 191.702435 161 190.988584 161 179.002283 151.525273 174 147.541936L174.218417 147.36513C174.218417 147.36513 174.671233 143.927811 176.487823 142.16495 178.304414 140.40209 195 153.350536 195 153.350536z" opacity=".1"/>
    <path fill="#DCE6F2" fill-rule="nonzero" d="M194,152.350536 C194,152.350536 191.618721,160 190.707763,160 C189.988584,160 178.002283,150.525273 173,146.541936 L173.218417,146.36513 C173.218417,146.36513 173.67656,142.927811 175.493151,141.16495 C177.309741,139.40209 194,152.350536 194,152.350536 Z"/>
    <path fill="#000" fill-rule="nonzero" d="M.203768116 26.6215068C1.81246377 30.2810959 6.24173913 32.0547945 8.81028986 34.9717808 7.28202899 31.3869863 2.81521739 29.6293151.203768116 26.6215068zM16.5963768 35.0519178C15.9582609 36.2753425 14.4514493 36.8683562 13.0786957 36.8416438 11.858264 36.7543998 10.6633236 36.4504382 9.55028986 35.9441096 9.95406392 36.5371542 10.2616885 37.1897884 10.4618841 37.8780822 11.7137918 38.4774764 13.0666264 38.8397952 14.4514493 38.9465753 15.8402899 38.9786301 17.3310145 38.3856164 17.9691304 37.1568493 18.9933333 35.2068493 17.9262319 33.54 16.6768116 31.9639726 17.1491968 32.9464505 17.1192748 34.0951735 16.5963768 35.0519178zM36.495942 8.27547945C36.2653623 7.24972603 35.4824638 6.4430137 35.0802899 5.4760274 34.8339901 4.72782117 34.6387144 3.96388952 34.4957971 3.18945205 34.1911123 2.09438429 33.6264834 1.0884116 32.8495652.256438356 32.9575083.519402104 33.0488459.788831652 33.1230435 1.06315068 33.2733209 1.84100232 33.4739327 2.60835709 33.7236232 3.36041096 34.1257971 4.32739726 34.9086957 5.13410959 35.1392754 6.15986301 35.421321 7.66375357 34.4826292 9.12736732 32.9943478 9.50424658 31.0102899 9.9369863 28.7473913 8.22739726 27.0421739 9.32794521 25.9965217 9.99575342 25.7552174 11.390137 25.6157971 12.6189041 25.3762802 14.7558904 25.1331884 16.880411 24.8865217 18.9924658 24.838117 19.7417381 24.6791132 20.4798088 24.4146377 21.1828767 23.5727536 23.1061644 21.2615942 24.0090411 19.1542029 23.9769863 18.3307933 24.0317817 17.5185608 23.7633183 16.8913043 23.2290411 16.5864317 22.7988929 16.25887 22.3851609 15.91 21.989589 13.2288406 19.7457534 12.4137681 25.2324658 13.1215942 26.7978082 13.4760337 27.5019738 13.915418 28.1604041 14.43 28.7584932 13.8401449 26.9954795 14.665942 21.920137 17.2827536 24.0945205 17.6315003 24.4888118 17.9573456 24.9026372 18.2586957 25.3339726 18.8884496 25.8675695 19.7020285 26.1358422 20.5269565 26.0819178 22.6343478 26.1139726 24.9455072 25.2110959 25.7873913 23.2878082 26.0523816 22.5830424 26.2113935 21.843134 26.2592754 21.0920548 26.5023671 18.9550685 26.7454589 16.8323288 26.9885507 14.7238356 27.127971 13.4950685 27.3692754 12.1006849 28.4095652 11.4328767 30.1201449 10.3323288 32.3830435 12.0419178 34.3671014 11.6038356 35.8432425 11.2226023 36.7726272 9.76954687 36.495942 8.27547945z" opacity=".15" transform="translate(162 101)"/>
    <path fill="#000" fill-rule="nonzero" d="M316.05238,143.681384 C315.492334,143.787215 314.916607,143.772671 314.362457,143.638692 C312.242445,143.20454 310.332735,142.048317 308.950493,140.36205 C308.187132,139.422817 307.586973,138.142045 308.050254,137.021369 C308.418772,136.119492 309.387451,135.553818 309.629621,134.614585 C309.739106,134.041229 309.708378,133.449416 309.540123,132.890879 L308.971551,130.259959 C308.80835,129.512842 308.524064,128.632311 307.79229,128.456205 C307.060517,128.280099 306.449828,128.888466 305.875992,129.347409 C304.470355,130.473421 301.769637,131.241885 300.084979,130.313325 C298.400321,129.384765 298.868867,126.300239 298.59511,124.629898 C298.585945,124.338219 298.451288,124.065221 298.226591,123.882781 C297.979797,123.795698 297.714845,123.775463 297.457965,123.824079 C296.547197,123.824079 295.820688,122.996914 295.552196,122.111046 C295.369734,121.206126 295.26929,120.286188 295.252116,119.362723 C295.146825,118.444836 294.820422,117.462911 294.036003,116.987958 C293.417466,116.692768 292.731608,116.5729 292.051266,116.641082 L288.144964,116.683774 C287.181551,116.683774 286.039142,116.619736 285.512686,115.80858 C284.98623,114.997424 285.375808,113.844729 285.928586,113.017564 C286.481364,112.190399 287.181551,111.36857 287.228932,110.349289 C287.276313,109.330008 286.623507,108.449477 286.091787,107.595629 C285.786877,107.128698 285.562565,106.612582 285.428453,106.069375 L284.307103,106 C283.870144,106.907214 284.307103,107.990533 284.833558,108.849718 C285.360014,109.708903 286.018083,110.589434 285.970702,111.598042 C285.923321,112.60665 285.223135,113.417805 284.670357,114.266317 C284.117578,115.114829 283.712208,116.224831 284.259722,117.057333 C284.807235,117.889835 285.918057,117.948537 286.892,117.937864 L290.798301,117.889835 C291.479132,117.823044 292.165083,117.944773 292.783039,118.242047 C293.567458,118.717 293.899125,119.698926 293.999152,120.616812 C294.015763,121.540594 294.117994,122.460749 294.304496,123.365136 C294.567724,124.245667 295.299497,125.088842 296.210265,125.072832 C296.465542,125.027065 296.728081,125.047254 296.973626,125.131534 C297.199132,125.315635 297.3338,125.590602 297.342145,125.883988 C297.615902,127.548992 297.110505,130.638854 298.832015,131.567414 C300.553525,132.495974 303.238449,131.727511 304.623027,130.601499 C305.196864,130.142555 305.833875,129.534188 306.54459,129.704958 C307.255305,129.875728 307.56065,130.772268 307.718586,131.508712 L308.292423,134.144968 C308.45914,134.703908 308.488063,135.295769 308.376656,135.868674 C308.113428,136.80257 307.139485,137.373581 306.770966,138.270122 C306.31295,139.390798 306.907845,140.676906 307.671205,141.610803 C309.062837,143.30435 310.986689,144.461257 313.120022,144.887445 C313.674172,145.021423 314.249899,145.035968 314.809944,144.930137 C315.714881,144.650527 316.491548,144.05249 317,143.243787 C316.712467,143.445893 316.391516,143.594103 316.05238,143.681384 Z" opacity=".1"/>
    <ellipse cx="313" cy="496" fill="#FF3200" fill-rule="nonzero" opacity=".1" rx="13" ry="4"/>
    <ellipse cx="521" cy="325" fill="#FF3200" fill-rule="nonzero" opacity=".1" rx="13" ry="2"/>
    <ellipse cx="406.5" cy="416.5" fill="#FF3200" fill-rule="nonzero" opacity=".1" rx="37.5" ry="9.5"/>
    <ellipse cx="496" cy="380.5" fill="#FF3200" fill-rule="nonzero" opacity=".1" rx="29" ry="4.5"/>
    <ellipse cx="491.5" cy="453.5" fill="#FF3200" fill-rule="nonzero" opacity=".1" rx="49.5" ry="11.5"/>
    <g fill-rule="nonzero" transform="translate(9 338)">
      <path fill="#FF3200" d="M36.1386362,0 C36.1386362,0 38.7301451,3.68576544 34.9469205,9.26589078 C31.1636959,14.8460161 28.0425356,19.561325 29.2720836,23 C29.2720836,23 34.9469205,12.7045658 39.6759513,12.519248 C44.404982,12.3339302 41.2554475,6.21844226 36.1386362,0 Z"/>
      <path fill="#000" d="M36.0505551,0 C36.2842732,0.352342546 36.4650638,0.742170436 36.5862825,1.15515695 C41.1782315,6.97219731 43.6177044,12.3869955 39.2075201,12.5004484 C35.1034656,12.6242152 30.1766869,20.5452915 29,22.5461883 C29.0359083,22.7002957 29.080638,22.8518566 29.1339318,23 C29.1339318,23 34.8738681,12.6860987 39.6571484,12.5004484 C44.4404286,12.3147982 41.2260643,6.22959641 36.0505551,0 Z" opacity=".1"/>
      <path fill="#FFD037" d="M43.28,5.04865679 C43.28,6.67966225 42.98,8 42.64,8 C42.3,8 42,6.70555123 42,5.04865679 C42,3.39176236 42.36,4.1943206 42.7,4.1943206 C43.04,4.1943206 43.28,3.41765134 43.28,5.04865679 Z"/>
      <path fill="#FFD037" d="M45.0487171,7.00730466 C43.4928076,7.70176939 42.1207784,8.16474588 42.0076213,7.94483205 C41.8944643,7.72491822 43.0543241,7.06517672 44.6243782,6.35913757 C46.1944323,5.65309843 45.5720685,6.17394698 45.6852256,6.35913757 C45.7983826,6.54432817 46.6187713,6.30126551 45.0487171,7.00730466 Z"/>
      <path fill="#FF3200" d="M20.8332124,0 C20.8332124,0 18.2326102,3.68576544 22.0291098,9.26589078 C25.8256094,14.8460161 28.9672129,19.561325 27.7238592,23 C27.7238592,23 22.0291098,12.7045658 17.3309415,12.519248 C12.6327732,12.3339302 15.6699729,6.21844226 20.8332124,0 Z"/>
      <path fill="#000" d="M20.9182816,0 C20.6889516,0.35561964 20.5080059,0.744592163 20.3809154,1.15515695 C15.7749197,6.97219731 13.3279844,12.3869955 17.7516595,12.5004484 C21.8682682,12.6242152 26.8101178,20.5452915 28,22.5461883 C27.9606595,22.7004669 27.9125909,22.8520194 27.8560626,23 C27.8560626,23 22.098568,12.6860987 17.3486349,12.5004484 C12.5987018,12.3147982 15.6981531,6.22959641 20.9182816,0 Z" opacity=".1"/>
      <path fill="#FFD037" d="M17 5.04865679C17 6.67966225 17.28 8 17.62 8 17.96 8 18.26 6.70555123 18.26 5.04865679 18.26 3.39176236 17.9 4.1943206 17.56 4.1943206 17.22 4.1943206 17 3.41765134 17 5.04865679zM13.9475232 7.00730466C15.5113721 7.70176939 16.8638902 8.16474588 16.9906887 7.94483205 17.1174873 7.72491822 15.934034 7.06517672 14.3701851 6.35913757 12.8063361 5.65309843 13.4262402 6.17394698 13.3135304 6.35913757 13.2008205 6.54432817 12.3836742 6.30126551 13.9475232 7.00730466z"/>
      <ellipse cx="29.5" cy="46.5" fill="#FF3200" opacity=".1" rx="29.5" ry="4.5"/>
      <path fill="#65617D" d="M42.99391,16.6868687 L42.8514984,17.8181818 L42.6582254,19.4141414 L42.5768474,20.0808081 L42.3835744,21.6767677 L42.2920241,22.3434343 L42.0987512,23.9393939 L39.8710264,42.1212121 C39.6777535,43.7373737 37.0126215,45 33.7676708,45 L22.2323287,45 C19.0178948,45 16.3527628,43.7373737 16.1289731,42.1212121 L13.9012483,23.9393939 L13.7079754,22.3434343 L13.6265973,21.6767677 L13.4231521,20.0808081 L13.3417741,19.4141414 L13.1485011,17.8181818 L13.0060895,16.6868687 C12.8941947,15.7676768 14.3386555,15 16.1594899,15 L39.8506819,15 C41.661344,15 43.1058048,15.7676768 42.99391,16.6868687 Z"/>
      <polygon fill="#9D9CB5" points="45 19 44.805 21 15.195 21 15 19"/>
      <polygon fill="#9D9CB5" points="44 21 43.808 23 15.202 23 15 21"/>
      <polygon fill="#9D9CB5" points="44 23 43.794 25 15.196 25 15 23"/>
    </g>
    <path fill="#FF3200" fill-rule="nonzero" d="M511.176403,306 C511.176403,306 509.343198,314.049438 517.496137,315 L518,314.105056 C518,314.105056 511.680266,308.497753 511.176403,306 Z"/>
    <path fill="#FF3200" fill-rule="nonzero" d="M521,314.564216 L519.124309,314.957997 L518.93886,315 C518.93886,315 513.937018,310.978191 514.000601,302 C514.669018,303.323776 515.469565,304.577882 516.390252,305.743538 C518.371914,308.342488 520.623802,311.807754 521,314.564216 Z"/>
    <path fill="#FF3200" fill-rule="nonzero" d="M521.466948 315.807903C521.167723 316.003697 520.796385 316.052804 520.456952 315.941468 515.630234 314.808831 517.26749 299 517.26749 299 517.533279 299.12288 517.799067 301.137051 518.936642 303.733567 520.876897 308.290827 523.019152 314.664581 521.466948 315.807903zM531.998429 306C531.998429 306 532.301517 314.049438 524.488022 315L524 314.089888C524 314.089888 531.515544 308.497753 531.998429 306z"/>
    <path fill="#FF3200" fill-rule="nonzero" d="M529.999509,302 C530.066879,310.978191 523.183911,315 523.183911,315 L522.981801,314.957997 L521,314.564216 C521.392992,311.807754 523.807083,308.342488 525.878711,305.743538 C527.067929,304.329647 528.453786,303.070666 529.999509,302 Z"/>
    <path fill="#FF3200" fill-rule="nonzero" d="M522.89036,314.986047 C522.614919,315.341233 522.264174,315.624826 521.865767,315.814478 C521.742374,315.872515 521.613635,315.917285 521.481544,315.948096 C520.339123,316.226021 519.944654,315.365522 520.00613,313.901069 C520.113712,311.298193 521.68134,306.781907 523.079909,303.398702 C523.753477,301.738856 524.747488,300.24152 526,299 C526,299 525.928278,311.308882 522.89036,314.986047 Z"/>
    <path fill="#FF3200" fill-rule="nonzero" d="M521.924918,294 C521.924918,294 515.939793,312.929503 521.092667,315.758412 C526.245541,318.587321 523.247076,295.672106 521.924918,294 Z"/>
    <path fill="#000" fill-rule="nonzero" d="M511.176403,306 C511.176403,306 509.343198,314.049438 517.496137,315 L518,314.105056 C518,314.105056 511.680266,308.497753 511.176403,306 Z" opacity=".1"/>
    <path fill="#000" fill-rule="nonzero" d="M521,314.564216 L519.124309,314.957997 L518.93886,315 C518.93886,315 513.937018,310.978191 514.000601,302 C514.669018,303.323776 515.469565,304.577882 516.390252,305.743538 C518.371914,308.342488 520.623802,311.807754 521,314.564216 Z" opacity=".1"/>
    <path fill="#000" fill-rule="nonzero" d="M521.466948 315.807903C521.167723 316.003697 520.796385 316.052804 520.456952 315.941468 515.630234 314.808831 517.26749 299 517.26749 299 517.533279 299.12288 517.799067 301.137051 518.936642 303.733567 520.876897 308.290827 523.019152 314.664581 521.466948 315.807903zM531.998429 306C531.998429 306 532.301517 314.049438 524.488022 315L524 314.089888C524 314.089888 531.515544 308.497753 531.998429 306z" opacity=".1"/>
    <path fill="#000" fill-rule="nonzero" d="M529.999509,302 C530.066879,310.978191 523.183911,315 523.183911,315 L522.981801,314.957997 L521,314.564216 C521.392992,311.807754 523.807083,308.342488 525.878711,305.743538 C527.067929,304.329647 528.453786,303.070666 529.999509,302 Z" opacity=".1"/>
    <path fill="#000" fill-rule="nonzero" d="M522.89036,314.986047 C522.614919,315.341233 522.264174,315.624826 521.865767,315.814478 C521.742374,315.872515 521.613635,315.917285 521.481544,315.948096 C520.339123,316.226021 519.944654,315.365522 520.00613,313.901069 C520.113712,311.298193 521.68134,306.781907 523.079909,303.398702 C523.753477,301.738856 524.747488,300.24152 526,299 C526,299 525.928278,311.308882 522.89036,314.986047 Z" opacity=".1"/>
    <path fill="#000" fill-rule="nonzero" d="M521.924918,294 C521.924918,294 515.939793,312.929503 521.092667,315.758412 C526.245541,318.587321 523.247076,295.672106 521.924918,294 Z" opacity=".1"/>
    <path fill="#FF3200" fill-rule="nonzero" d="M511.048812,306 C511.048812,306 509.924175,314.049438 518.47142,315 L519,314.105056 C519,314.105056 511.577392,308.497753 511.048812,306 Z"/>
    <path fill="#FF3200" fill-rule="nonzero" d="M521,314.563688 L519.066968,314.957946 L518.875849,315 C518.875849,315 512.951159,310.973312 513.000304,302 C513.000304,302 514.518335,303.577032 516.232946,305.748079 C518.291571,308.334412 520.612301,311.803882 521,314.563688 Z"/>
    <path fill="#000" fill-rule="nonzero" d="M522,314.615385 L519.965517,315 C518.04023,313.492308 517.275862,309.553846 517,306 C519.149425,308.538462 521.591954,311.923077 522,314.615385 Z" opacity=".1"/>
    <path fill="#FF3200" fill-rule="nonzero" d="M522.426646 315.807799C522.101302 316.00377 521.698319 316.052838 521.329716 315.941364 516.114989 314.808734 517.068342 299 517.068342 299 517.355496 299.12288 518.481142 301.137037 519.681449 303.733538 521.789163 308.29077 524.097886 314.664484 522.426646 315.807799zM531.951188 306C531.951188 306 533.075825 314.049438 524.52858 315L524 314.105056C524 314.105056 531.422608 308.497753 531.951188 306z"/>
    <path fill="#FF3200" fill-rule="nonzero" d="M529.999459,302 C530.065118,310.978191 524.128447,315 524.128447,315 L523.936942,314.957997 L522,314.564216 C522.383011,311.807754 524.735793,308.342488 526.76028,305.743538 C528.478358,303.575121 529.999459,302 529.999459,302 Z"/>
    <path fill="#000" fill-rule="nonzero" d="M527,306 C526.735632,309.312821 526.057471,312.958974 524.408046,314.661538 C524.295337,314.784275 524.170296,314.897567 524.034483,315 L522,314.615385 C522.402299,311.923077 524.850575,308.538462 527,306 Z" opacity=".1"/>
    <path fill="#FF3200" fill-rule="nonzero" d="M524.249481,314.986047 C523.941389,315.342806 523.546509,315.626714 523.09724,315.814478 C522.96017,315.871813 522.817379,315.916566 522.670911,315.948096 C521.380402,316.226021 520.94255,315.365522 521.005924,313.90107 C521.13267,311.298193 522.895598,306.781908 524.462645,303.398703 C525.614886,300.966857 526.657664,299.12293 526.934201,299.000002 C526.934201,298.994657 527.665874,311.308882 524.249481,314.986047 Z"/>
    <path fill="#000" fill-rule="nonzero" d="M521.525803,315.99992 C521.280225,316.002992 521.040326,315.917325 520.841821,315.755674 C518.813624,314.343294 518.770875,309.044214 519.255362,304 C520.998567,308.529173 522.908017,314.863645 521.525803,315.99992 Z" opacity=".1"/>
    <path fill="#000" fill-rule="nonzero" d="M524.305661,314.195681 C524.017957,314.748236 523.630437,315.037423 523.131358,314.99611 C522.876086,314.968971 522.632208,314.887428 522.420906,314.758564 C521.767686,314.365093 521.270835,313.801705 521,313.147377 C521.129173,310.63248 522.925856,306.26885 524.522907,303 C525.098315,307.52888 525.292075,312.331456 524.305661,314.195681 Z" opacity=".1"/>
    <path fill="#FF3200" fill-rule="nonzero" d="M520.868078,294 C520.868078,294 516.664902,312.929503 520.868078,315.758412 C525.071254,318.587321 521.947793,295.672106 520.868078,294 Z"/>
    <polygon fill="#4B4770" fill-rule="nonzero" points="530 315 511 315 511 318.268 513.899 318.268 513.972 318.654 515.134 325 526.18 325 527.342 318.654 527.41 318.268 530 318.268"/>
    <polygon fill="#000" fill-rule="nonzero" points="530 315 511 315 511 318.268 513.899 318.268 513.972 318.654 515.134 325 526.18 325 527.342 318.654 527.41 318.268 530 318.268" opacity=".1"/>
    <polygon fill="#4B4770" fill-rule="nonzero" points="529 317 528.681 318.717 527.52 325 516.48 325 515.319 318.717 515 317"/>
    <polygon fill="#000" fill-rule="nonzero" points="529 317 528.681 319 515.319 319 515 317" opacity=".1"/>
    <polygon fill="#4B4770" fill-rule="nonzero" points="512 315 531 315 531 318 512 318"/>
    <circle cx="525.5" cy="199.5" r="7.5" fill="#FF3200" fill-rule="nonzero" opacity=".1"/>
    <circle cx="539.5" cy="183.5" r="5.5" fill="#FF3200" fill-rule="nonzero" opacity=".1"/>
  </g>
</svg>
