<svg xmlns="http://www.w3.org/2000/svg" xmlns:xlink="http://www.w3.org/1999/xlink" width="714" height="757" viewBox="0 0 714 757">
  <defs>
    <rect id="graphic-background-top-a" width="1379" height="796"/>
    <linearGradient id="graphic-background-top-b" x1="88.234%" x2="0%" y1="56.02%" y2="37.243%">
      <stop offset="0%" stop-color="#FF3200" stop-opacity="0"/>
      <stop offset="100%" stop-color="#FF3200"/>
    </linearGradient>
    <linearGradient id="graphic-background-top-d" x1="75.496%" x2="7.734%" y1="76.689%" y2="13.151%">
      <stop offset="0%" stop-color="#FAD961" stop-opacity=".299"/>
      <stop offset="100%" stop-color="#FF3200"/>
    </linearGradient>
  </defs>
  <g fill="none" fill-rule="evenodd" transform="translate(-665.833)">
    <mask id="graphic-background-top-c" fill="#fff">
      <use xlink:href="#graphic-background-top-a"/>
    </mask>
    <path fill="url(#graphic-background-top-b)" fill-rule="nonzero" d="M1031.44789,-397.228926 C1108.50637,-380.84964 1179.54238,-334.579311 1227.13488,-280.812529 C1276.80112,-224.687869 1368.76291,-203.315865 1441.93667,-173.679059 C1494.58476,-152.349899 1548.09169,-130.561687 1592.27249,-97.7785732 C1612.35239,-82.8742913 1630.72156,-65.1999302 1639.38841,-44.2789945 C1652.14862,-13.4555391 1641.98011,19.2409496 1627.30269,47.6241299 C1582.37021,134.499419 1531.49093,245.435058 1519.97472,341.461758 C1505.30968,463.744721 1428.73456,503.172842 1373.83916,503.172842 C1337.93791,503.172842 1212.34825,475.97354 1159.11823,535.023913 C1060.63797,644.272348 914.347782,606.750138 868.474466,577.257115 C816.985987,544.155755 785.123426,489.935161 786.424417,437.694467 C787.633669,392.8077 811.232393,352.219122 824.701436,309.532715 C838.170478,266.846308 824.701436,170.825374 753.845828,146.118556 C697.2404,126.380668 661.465,63.2921418 666.416743,12.3067117 C670.707195,-32.6256019 710.426039,-67.8890847 755.454405,-90.31868 C766.969601,-96.0371191 779.279585,-101.254817 792.922946,-102.189012 C805.358755,-103.06651 818.133233,-100.259043 830.420808,-96.8914626 C859.701091,-88.8428233 888.260457,-77.3160073 918.376105,-73.7166305 C948.491754,-70.1172537 982.006021,-76.4500793 997.112128,-97.3318471 C1006.90769,-110.8814 1007.42847,-128.301025 1004.10021,-144.658565 C997.419748,-177.434037 976.896703,-207.732371 958.422133,-237.890226 C939.947562,-268.048081 922.837597,-300.385978 923.958371,-333.088532 C925.079145,-365.791086 949.989017,-398.616942 988.555863,-402.06932 C1002.72913,-403.333286 1017.3507,-400.649347 1031.44789,-397.228926 Z" mask="url(#graphic-background-top-c)" opacity=".3"/>
    <path fill="url(#graphic-background-top-d)" fill-rule="nonzero" d="M1741.08145,400.173892 C1681.88847,459.36688 1599.54288,495.893897 1524.0842,507.190319 C1445.3241,518.970219 1417.78048,620.814922 1358.96386,680.459775 C1314.89941,725.144722 1173.91938,772.008759 1107.50154,751.991984 C1073.39743,741.713809 1016.60104,703.237249 999.8011,673.730894 C948.384329,583.410853 936.018975,465.63629 863.483829,392.776725 C831.714086,360.817738 787.542462,335.570568 780.723115,288.198819 C775.908625,254.727299 791.646019,217.557327 812.260823,185.45401 C832.875628,153.350693 858.622463,124.081437 878.289469,91.5169504 C884.813617,80.7117057 890.822737,69.202189 892.663629,57.5256135 C895.741248,38.4616213 887.832894,21.6317394 881.075465,5.38504832 C866.644482,-29.5059048 856.800628,-66.1127654 851.790757,-103.51754 C848.338713,-128.786776 846.996454,-155.217454 853.584129,-181.801643 C867.136907,-236.295794 914.134988,-285.217659 966.966673,-309.030013 C1026.26368,-335.758168 1093.02335,-332.773903 1138.82577,-301.381104 C1178.12768,-274.326018 1200.64166,-229.805607 1230.88753,-193.098383 C1261.13341,-156.391158 1306.35309,-125.743306 1359.02184,-137.9584 C1379.00429,-142.604772 1398.11411,-153.098207 1417.5238,-161.669675 C1475.99608,-187.708592 1544.80002,-196.062359 1587.37097,-162.142582 C1624.93028,-132.315264 1633.36945,-76.5108891 1627.29865,-23.402218 C1625.73054,-9.83077253 1623.2562,4.15916887 1616.19287,16.8583743 C1609.77786,28.4486322 1599.88293,38.2080918 1589.77062,47.2094823 C1565.65246,68.6451846 1538.85187,87.4254929 1518.2153,112.180582 C1497.57873,136.935671 1483.82656,170.467595 1493.69337,196.014667 C1500.09931,212.585747 1515.32177,223.131158 1531.82529,229.631756 C1564.90002,242.646559 1603.77834,241.89167 1641.34596,242.88102 C1678.91357,243.870369 1717.63423,247.337477 1746.12914,267.262312 C1774.62405,287.187147 1789.46132,328.383474 1770.21808,364.751097 C1763.14196,378.113386 1752.28813,389.590412 1741.08145,400.173892 Z" mask="url(#graphic-background-top-c)" opacity=".2"/>
  </g>
</svg>
