<svg xmlns="http://www.w3.org/2000/svg" width="288" height="511" viewBox="0 0 288 511">
  <g fill="none" fill-rule="evenodd" transform="matrix(-1 0 0 1 288 0)">
    <g transform="translate(23 246)">
      <path fill="#FF3200" fill-rule="nonzero" d="M42.5722852,263.901986 C42.5722852,263.901986 4.27152918,195.786886 51.857317,141.525705 C99.4431047,87.2645244 155.153295,117.281348 155.153295,117.281348 C155.153295,117.281348 224.791033,149.607158 208.542228,226.958203 C208.542228,226.958203 199.257196,266.210972 171.402101,263.901986 L42.5722852,263.901986 Z"/>
      <path fill="#FFF" fill-rule="nonzero" d="M42.5722852,263.901986 C42.5722852,263.901986 4.27152918,195.786886 51.857317,141.525705 C99.4431047,87.2645244 155.153295,117.281348 155.153295,117.281348 C155.153295,117.281348 224.791033,149.607158 208.542228,226.958203 C208.542228,226.958203 199.257196,266.210972 171.402101,263.901986 L42.5722852,263.901986 Z" opacity=".2"/>
      <path stroke="#535461" d="M103 265L145 137M184 156C184 156 162.141739 145.87125 140.201304 151.51375 140.201304 151.51375 128.826087 123.625 103 119M193 200C193 200 156.223232 173.615184 129.308586 181.618271 129.308586 181.618271 98.9090909 145.800422 78 148.106787M186 247C186 247 154.512 224.339741 115.565091 225.855826 115.565091 225.855826 85.9272727 190.314633 58 188"/>
      <path fill="#FF3200" fill-rule="nonzero" d="M0,216.342684 L0,2.28456839 C0,2.28456839 104.419054,-24.3280622 124.142653,104.106807 C143.866253,232.541676 0,216.342684 0,216.342684 Z"/>
      <path stroke="#535461" d="M102 70C102 70 79.915 50.2325581 57.6666667 54.8837209 57.6666667 54.8837209 43.6666667 23.4883721 32 20M93 108C93 108 77.9832319 85.5721008 38.7086076 84.6095798 38.7086076 84.6095798 15.6058875 41.8991597 0 39M93 161C93 161 60.5135404 116.660131 20.7257143 114.429194 20.7257143 114.429194 8.66459627 98.0573711 0 97"/>
      <path stroke="#535461" d="M59.9486239,213 C59.9486239,213 45.2110092,163.258789 0,148.313128 L64,46"/>
    </g>
    <path stroke="#535461" stroke-width="2" d="M87.25,480.23 C87.25,480.23 50.78,356.4 94.09,265.23 C112.27,226.98 118.31,184.04 109.91,142.53 C105.890735,122.843193 100.07644,103.565975 92.54,84.94"/>
    <path fill="#FF3200" fill-rule="nonzero" d="M119.96 27.5C119.96 42.68 92.48 86.69 92.48 86.69 92.48 86.69 65 42.69 65 27.5 65 12.3121694 77.3121694 0 92.5 0 107.687831 0 120 12.3121694 120 27.5L119.96 27.5zM165.23 111.683124C156.98 124.423124 110 146.433124 110 146.433124 110 146.433124 110.85 94.5531237 119.1 81.8131237 124.380621 73.4464454 133.751172 68.564276 143.633923 69.0306567 153.516673 69.4970375 162.385811 75.2399633 166.855049 84.0667511 171.324286 92.8935388 170.70361 103.44141 165.23 111.683124zM163.22 254.926904C149.67 261.756904 98 257.036904 98 257.036904 98 257.036904 124.92 212.686904 138.47 205.856904 151.999225 199.161406 168.396333 204.632539 175.19438 218.110527 181.992428 231.588515 176.645974 248.026699 163.22 254.926904zM136.92 363.577385C124.72 372.577385 73 376.677385 73 376.677385 73 376.677385 92 328.417385 104.24 319.387385 116.442732 310.363052 133.650667 312.939653 142.675 325.142385 151.699333 337.345116 149.122732 354.553052 136.92 363.577385zM51.98 149.11C62.87 159.68 113.58 170.64 113.58 170.64 113.58 170.64 101.16 120.26 90.27 109.69 79.347157 99.3607713 62.1515572 99.725932 51.6770604 110.509548 41.2025635 121.293164 41.3375423 138.492111 51.98 149.11zM22.7903201 275.866699C36.3403201 282.696699 88.0103201 277.976699 88.0103201 277.976699 88.0103201 277.976699 61.0903201 233.626699 47.4903201 226.766699 33.9817829 220.206302 17.708525 225.705054 10.9478041 239.114455 4.18708318 252.523856 9.44302634 268.877151 22.7503201 275.836699L22.7903201 275.866699zM12.4877725 403.837192C24.6877725 412.837192 76.4077725 416.937192 76.4077725 416.937192 76.4077725 416.937192 57.4077725 368.677192 45.1677725 359.647192 37.2857512 353.622824 26.7685492 352.314514 17.6507655 356.224154 8.53298176 360.133795 2.23032321 368.654341 1.16060978 378.517149.0908963473 388.379958 4.42022109 398.053642 12.4877725 403.827192L12.4877725 403.837192z"/>
    <path fill="#FFF" fill-opacity=".4" fill-rule="nonzero" d="M65.04 27.5L65 27.5C65 12.3121694 77.3121694-1.70530257e-13 92.5-1.70530257e-13 107.687831-1.70530257e-13 120 12.3121694 120 27.5 120 42.69 92.52 86.69 92.52 86.69 92.52 86.69 65.04 42.68 65.04 27.5zM164.411398 111.683124C156.161398 124.423124 109.181398 146.433124 109.181398 146.433124 109.181398 146.433124 110.031398 94.5531237 118.281398 81.8131237 123.562019 73.4464454 132.93257 68.564276 142.815321 69.0306567 152.698071 69.4970375 161.567209 75.2399633 166.036447 84.0667511 170.505684 92.8935388 169.885008 103.44141 164.411398 111.683124zM163.075603 254.926904C149.525603 261.756904 97.8556029 257.036904 97.8556029 257.036904 97.8556029 257.036904 124.775603 212.686904 138.325603 205.856904 151.854828 199.161406 168.251935 204.632539 175.049983 218.110527 181.848031 231.588515 176.501577 248.026699 163.075603 254.926904zM136.857615 363.577385C124.657615 372.577385 72.9376155 376.677385 72.9376155 376.677385 72.9376155 376.677385 91.9376155 328.417385 104.177615 319.387385 116.380347 310.363052 133.588283 312.939653 142.612615 325.142385 151.636948 337.345116 149.060347 354.553052 136.857615 363.577385zM50.1899687 149.11C39.5475111 138.492111 39.4125323 121.293164 49.8870291 110.509548 60.361526 99.725932 77.5571258 99.3607713 88.4799687 109.69 99.3699687 120.26 111.789969 170.64 111.789969 170.64 111.789969 170.64 61.0799687 159.68 50.1899687 149.11zM22.78 275.866699L22.74 275.836699C9.43270625 268.877151 4.1767631 252.523856 10.937484 239.114455 17.6982049 225.705054 33.9714628 220.206302 47.48 226.766699 61.08 233.626699 88 277.976699 88 277.976699 88 277.976699 36.33 282.696699 22.78 275.866699zM12.08 403.837192L12.08 403.827192C4.01244858 398.053642-.316876164 388.379958.752837266 378.517149 1.8225507 368.654341 8.12520924 360.133795 17.2429929 356.224154 26.3607767 352.314514 36.8779787 353.622824 44.76 359.647192 57 368.677192 76 416.937192 76 416.937192 76 416.937192 24.28 412.837192 12.08 403.837192z"/>
    <g transform="translate(144 204)">
      <path stroke="#535461" stroke-width="2" d="M0.78,276.46 C0.78,276.46 75.26,159.38 84.26,109.38 C93.26,59.38 110.26,13.38 110.26,13.38"/>
      <path fill="#FF3200" fill-rule="nonzero" d="M127.26,113.38 L80.26,117.38 C80.26,117.38 105.26,160.38 127.26,113.38 Z"/>
      <path fill="#FF3200" fill-rule="nonzero" d="M45.26 87.38L82.48 117.19C82.48 117.19 34.26 136.38 45.26 87.38zM133.26 72.38L90.9 78.04C90.9 78.04 128.26 108.38 133.26 72.38zM63.26 57.38L91.2 76.99C91.2 76.99 57.26 91.38 63.26 57.38zM101.57 39.57C101.57 39.57 136.26 30.38 141.26 32.38 146.26 34.38 143.26 56.38 129.26 57.38 115.26 58.38 101.57 39.57 101.57 39.57zM78.26 13.38C78.26 13.38 100.26 34.38 101.26 39.38 102.26 44.38 83.26 56.38 73.26 39.38 63.26 22.38 78.26 13.38 78.26 13.38z"/>
      <circle cx="101.26" cy="10.38" r="10" fill="#FFD037" fill-rule="nonzero"/>
      <circle cx="119.26" cy="15.38" r="10" fill="#FFD037" fill-rule="nonzero"/>
    </g>
    <g fill-rule="nonzero" transform="translate(144 364)">
      <g transform="translate(3)">
        <path fill="#F30" d="M101.15,0.11 C101.15,0.11 114.5,17.56 94.99,43.92 C75.48,70.28 59.4,92.52 65.9,108.92 C65.9,108.92 95.33,59.98 119.29,59.3 C143.25,58.62 127.5,29.57 101.15,0.11 Z"/>
        <path fill="#000" d="M101.15,0.11 C102.324036,1.80294356 103.250067,3.65500529 103.9,5.61 C127.27,33.07 139.73,58.7 117.26,59.34 C96.33,59.94 71.26,97.34 65.26,106.81 C65.456444,107.539329 65.69348,108.257114 65.97,108.96 C65.97,108.96 95.4,60.02 119.36,59.34 C143.32,58.66 127.5,29.57 101.15,0.11 Z" opacity=".1"/>
        <path fill="#F30" d="M30.65,0.11 C30.65,0.11 17.3,17.56 36.81,43.92 C56.32,70.28 72.4,92.52 65.9,108.92 C65.9,108.92 36.47,59.98 12.51,59.3 C-11.45,58.62 4.3,29.57 30.65,0.11 Z"/>
        <path fill="#FFF" fill-opacity=".4" d="M101.15,0.11 C101.15,0.11 114.5,17.56 94.99,43.92 C75.48,70.28 59.4,92.52 65.9,108.92 C65.9,108.92 95.33,59.98 119.29,59.3 C143.25,58.62 127.5,29.57 101.15,0.11 Z"/>
        <path fill="#FFF" fill-opacity=".4" d="M30.65,0.11 C30.65,0.11 17.3,17.56 36.81,43.92 C56.32,70.28 72.4,92.52 65.9,108.92 C65.9,108.92 36.47,59.98 12.51,59.3 C-11.45,58.62 4.3,29.57 30.65,0.11 Z"/>
        <path fill="#000" d="M30.65,0.11 C29.4759643,1.80294356 28.5499334,3.65500529 27.9,5.61 C4.53,33.07 -7.93,58.7 14.54,59.34 C35.47,59.94 60.54,97.34 66.54,106.81 C66.343556,107.539329 66.10652,108.257114 65.83,108.96 C65.83,108.96 36.4,60.02 12.44,59.34 C-11.52,58.66 4.3,29.57 30.65,0.11 Z" opacity=".1"/>
      </g>
      <g fill="#FFD037" transform="translate(0 18)">
        <path d="M131.96,4.38 C131.96,10.52 131.27,15.5 130.42,15.5 C129.57,15.5 128.88,10.5 128.88,4.38 C128.88,-1.74 129.74,1.13 130.59,1.13 C131.44,1.13 131.96,-1.76 131.96,4.38 Z"/>
        <path d="M140.47 11.71C135.08 14.65 130.37 16.43 129.97 15.71 129.57 14.99 133.61 11.97 138.97 9.03 144.33 6.09 142.24 8.23 142.64 8.98 143.04 9.73 145.9 8.77 140.47 11.71zM11.84 4.38C11.84 10.52 12.53 15.5 13.38 15.5 14.23 15.5 14.92 10.5 14.92 4.38 14.92-1.74 14.06 1.13 13.21 1.13 12.36 1.13 11.84-1.76 11.84 4.38z"/>
        <path d="M3.32,11.71 C8.71,14.65 13.42,16.43 13.82,15.71 C14.22,14.99 10.18,11.97 4.82,9.03 C-0.54,6.09 1.55,8.23 1.15,8.98 C0.75,9.73 -2.1,8.77 3.32,11.71 Z"/>
      </g>
    </g>
  </g>
</svg>
